<?xml version="1.0" encoding="UTF-8" standalone="no"?>
<!-- Created with Inkscape (http://www.inkscape.org/) -->
<!--
   Goose_(PSF).png: Pearson Scott Foresmanderivative work: Totodu74 / Public domain
   retrieved 2020-08-29 from https://commons.wikimedia.org/wiki/File:Goose.svg
-->

<svg
   xmlns:dc="http://purl.org/dc/elements/1.1/"
   xmlns:cc="http://creativecommons.org/ns#"
   xmlns:rdf="http://www.w3.org/1999/02/22-rdf-syntax-ns#"
   xmlns:svg="http://www.w3.org/2000/svg"
   xmlns="http://www.w3.org/2000/svg"
   xmlns:sodipodi="http://sodipodi.sourceforge.net/DTD/sodipodi-0.dtd"
   xmlns:inkscape="http://www.inkscape.org/namespaces/inkscape"
   id="svg2"
   version="1.1"
   inkscape:version="0.47 r22583"
   width="170"
   height="190"
   sodipodi:docname="Goose.svg">
  <metadata
     id="metadata8">
    <rdf:RDF>
      <cc:Work
         rdf:about="">
        <dc:format>image/svg+xml</dc:format>
        <dc:type
           rdf:resource="http://purl.org/dc/dcmitype/StillImage" />
        <dc:title />
      </cc:Work>
    </rdf:RDF>
  </metadata>
  <defs
     id="defs6">
    <inkscape:path-effect
       effect="spiro"
       id="path-effect2822"
       is_visible="true" />
    <inkscape:perspective
       sodipodi:type="inkscape:persp3d"
       inkscape:vp_x="0 : 0.5 : 1"
       inkscape:vp_y="0 : 1000 : 0"
       inkscape:vp_z="1 : 0.5 : 1"
       inkscape:persp3d-origin="0.5 : 0.33333333 : 1"
       id="perspective10" />
  </defs>
  <sodipodi:namedview
     pagecolor="#ffffff"
     bordercolor="#666666"
     borderopacity="1"
     objecttolerance="10"
     gridtolerance="10"
     guidetolerance="10"
     inkscape:pageopacity="0"
     inkscape:pageshadow="2"
     inkscape:window-width="1280"
     inkscape:window-height="750"
     id="namedview4"
     showgrid="false"
     inkscape:zoom="1.7931734"
     inkscape:cx="149.73735"
     inkscape:cy="96.003405"
     inkscape:window-x="-8"
     inkscape:window-y="-8"
     inkscape:window-maximized="1"
     inkscape:current-layer="svg2" />
  <path
     style="fill:#000000;fill-opacity:1;stroke:none"
     d="m 5.3221249,28.628741 c 0.7459401,-1.290464 1.7635937,-2.423016 2.967216,-3.30223 2.1523371,-1.572225 4.8096671,-2.293585 7.0830311,-3.68508 2.025019,-1.239487 3.703582,-2.989882 5.072982,-4.92941 1.149965,-1.628734 2.102811,-3.407923 3.445799,-4.88155 1.258374,-1.380781 2.835054,-2.4575943 4.546541,-3.2065101 1.323488,-0.5791347 2.730561,-0.9663861 4.163675,-1.1486 1.490929,-0.1895648 3.004037,-0.1576406 4.498679,0 2.028485,0.2139453 4.028559,0.6582719 5.982292,1.24432 1.813458,0.5439708 3.61091,1.2211748 5.168698,2.2972001 2.45693,1.697098 4.152219,4.260249 6.221582,6.41301 2.293486,2.385916 5.066007,4.2832 7.274464,6.74803 1.000406,1.116539 1.877259,2.342036 2.632205,3.63723 0.878037,1.506371 1.590663,3.104875 2.201485,4.73797 0.594791,1.590234 1.095044,3.218258 1.435749,4.88155 0.430193,2.100163 0.603778,4.243264 0.909306,6.36515 0.352557,2.448497 0.883039,4.901961 0.717878,7.37019 -0.151706,2.267156 -0.88427,4.448013 -1.435749,6.6523 -0.570405,2.279934 -0.94989,4.602508 -1.413215,6.90659 -0.02843,0.141364 -0.05727,0.283516 -0.06125,0.427655 -0.004,0.144138 0.0182,0.291848 0.08657,0.418805 0.05697,0.105803 0.144806,0.193985 0.247809,0.255878 0.103003,0.06189 0.220788,0.09786 0.340411,0.109293 0.239245,0.02287 0.480278,-0.05179 0.688107,-0.172494 0.41566,-0.241399 0.703051,-0.651082 1.07409,-0.956657 0.458568,-0.377661 1.035796,-0.587109 1.619444,-0.697871 0.583647,-0.110761 1.180172,-0.129191 1.773136,-0.165339 1.787544,-0.108972 3.585104,-0.38119 5.360133,-0.14357 1.953082,0.261456 3.794364,1.131054 5.756886,1.30824 2.23109,0.201434 4.42979,-0.50293 6.638416,-0.87751 3.122233,-0.529526 6.316048,-0.400665 9.475947,-0.19144 3.946008,0.261275 7.905988,0.649257 11.725278,1.67504 2.1407,0.574949 4.22418,1.347032 6.26944,2.20149 2.67196,1.116279 5.35252,2.423946 7.32232,4.54653 0.6619,0.713238 1.24665,1.520647 2.05792,2.05791 0.26297,0.174154 0.55187,0.321863 0.75709,0.561385 0.10261,0.119761 0.18205,0.262373 0.21105,0.41739 0.029,0.155016 0.004,0.322855 -0.0841,0.453455 -0.0635,0.09382 -0.15531,0.163996 -0.23663,0.24288 -0.0407,0.03944 -0.0791,0.0816 -0.10962,0.12935 -0.0305,0.04775 -0.0528,0.101441 -0.0592,0.15773 -0.008,0.07267 0.0109,0.147076 0.0474,0.210435 0.0365,0.06336 0.0898,0.116092 0.14979,0.157869 0.12004,0.08355 0.2641,0.123336 0.40321,0.168516 1.24883,0.405603 2.25201,1.321462 3.2761,2.14324 1.34903,1.082525 2.7981,2.038214 4.11581,3.15866 1.67866,1.427363 3.12914,3.110901 4.38813,4.919269 1.20983,1.737749 2.25071,3.598356 3.60422,5.22669 0.0808,0.09724 0.16447,0.196616 0.20537,0.316266 0.0205,0.05983 0.0295,0.124199 0.0206,0.186785 -0.009,0.06259 -0.0367,0.123243 -0.0824,0.166979 -0.0339,0.0325 -0.0766,0.05488 -0.12127,0.06944 -0.0447,0.01457 -0.0914,0.02162 -0.13817,0.02633 -0.0935,0.0094 -0.1898,0.01008 -0.27733,0.04423 -0.11586,0.0452 -0.20484,0.147527 -0.24676,0.264611 -0.0419,0.117084 -0.0395,0.247239 -0.007,0.367285 0.065,0.240092 0.23999,0.432275 0.40767,0.615984 1.49555,1.638543 2.85868,3.399326 4.43646,4.958843 1.39474,1.378597 2.95679,2.599817 4.17803,4.134227 0.87584,1.10044 1.5876,2.37183 2.72559,3.19829 0.32979,0.23951 0.69262,0.43907 0.97996,0.72814 0.14367,0.14454 0.26735,0.31158 0.34498,0.5 0.0776,0.18843 0.10746,0.39932 0.0653,0.59871 -0.0433,0.20459 -0.15791,0.38553 -0.26331,0.56614 -0.1054,0.1806 -0.20578,0.37357 -0.21527,0.58246 -0.006,0.12773 0.0234,0.2559 0.0763,0.37229 0.0529,0.1164 0.12913,0.22134 0.21739,0.31386 0.17652,0.18502 0.39835,0.31924 0.61638,0.45288 1.03146,0.63225 2.0406,1.30157 3.0143,2.0196 1.44759,1.06748 2.81953,2.24436 4.35271,3.18477 0.27469,0.16849 0.55885,0.3329 0.77485,0.57203 0.108,0.11957 0.19761,0.25742 0.25048,0.40962 0.0529,0.1522 0.0678,0.31926 0.03,0.47586 -0.046,0.19017 -0.16841,0.35707 -0.32365,0.47616 -0.15524,0.1191 -0.34177,0.19281 -0.53295,0.23443 -0.38236,0.0832 -0.77945,0.0421 -1.17026,0.0621 -0.93769,0.0479 -1.81845,0.4448 -2.66325,0.85452 -1.7076,0.82816 -3.37539,1.73587 -5.07298,2.58436 -2.2231,1.11116 -4.49629,2.12024 -6.79589,3.06293 -2.64032,1.08236 -5.3187,2.07865 -7.89661,3.30222 -3.04296,1.44429 -5.9369,3.20106 -9.04523,4.49869 -2.63934,1.10185 -5.46898,1.87049 -8.32735,1.77075 -1.11778,-0.039 -2.23749,-0.21012 -3.35008,-0.0957 -1.22957,0.12645 -2.39383,0.59545 -3.58937,0.90932 -0.3278,0.0861 -0.66101,0.1614 -0.9693,0.30218 -0.30829,0.14077 -0.59503,0.35546 -0.7536,0.65498 -0.144,0.27201 -0.17126,0.59652 -0.11243,0.89862 0.0588,0.3021 0.19913,0.58361 0.37289,0.83764 0.34752,0.50806 0.82768,0.91438 1.17529,1.42238 0.62133,0.908 0.76592,2.05842 0.76573,3.15866 -3.6e-4,2.12345 -0.46991,4.21457 -0.76573,6.31732 -0.39458,2.80471 -0.48076,5.64212 -0.62216,8.47091 -0.12001,2.40074 -0.27669,4.84207 0.28715,7.17874 0.2698,1.11813 0.69999,2.18992 1.06371,3.28112 0.36373,1.0912 0.66396,2.22096 0.65919,3.37118 -0.004,1.07206 -0.27644,2.13382 -0.71788,3.11079 -0.97913,2.16694 -2.73769,3.86755 -4.45752,5.50966 -0.20348,0.19428 -0.41109,0.39147 -0.6629,0.51693 -0.12591,0.0627 -0.2622,0.10661 -0.40233,0.11889 -0.14013,0.0123 -0.28425,-0.008 -0.41168,-0.0675 -0.11751,-0.0549 -0.21842,-0.14212 -0.29824,-0.24437 -0.0798,-0.10226 -0.1392,-0.21936 -0.18452,-0.34091 -0.0906,-0.24309 -0.12575,-0.5027 -0.18725,-0.75475 -0.11858,-0.48599 -0.34572,-0.9579 -0.71788,-1.29218 -0.25625,-0.23017 -0.57313,-0.38752 -0.90524,-0.47887 -0.33211,-0.0913 -0.67957,-0.11842 -1.02383,-0.10708 -0.68852,0.0227 -1.36195,0.19625 -2.04317,0.29881 -2.87807,0.43329 -5.804511,-0.40663 -8.710198,-0.23931 -0.786589,0.0453 -1.599771,0.17629 -2.249355,0.62218 -0.476996,0.32742 -0.836484,0.80549 -1.318952,1.12479 -0.241234,0.15966 -0.516155,0.27834 -0.804772,0.29789 -0.144309,0.01 -0.290841,-0.006 -0.428229,-0.0508 -0.137387,-0.0452 -0.265427,-0.1207 -0.367397,-0.22328 -0.136143,-0.13696 -0.22244,-0.31909 -0.25938,-0.50864 -0.03694,-0.18954 -0.02629,-0.38634 0.01362,-0.57529 0.07982,-0.37788 0.272163,-0.72049 0.437195,-1.06968 0.342747,-0.72521 0.580967,-1.51059 1.05935,-2.15445 0.200642,-0.27005 0.441511,-0.51197 0.607245,-0.80474 0.08287,-0.14639 0.146241,-0.3055 0.169897,-0.47204 0.02366,-0.16654 0.0061,-0.34105 -0.06573,-0.49317 -0.06258,-0.1326 -0.163643,-0.2438 -0.275644,-0.33843 -0.112001,-0.0946 -0.235639,-0.17429 -0.355596,-0.25861 -0.119957,-0.0843 -0.237488,-0.17439 -0.332792,-0.28582 -0.0953,-0.11142 -0.167841,-0.24639 -0.185038,-0.392 -0.02233,-0.18906 0.0508,-0.37971 0.163184,-0.53337 0.112384,-0.15366 0.261792,-0.27575 0.411586,-0.39324 0.435937,-0.34193 0.892248,-0.66173 1.38789,-0.90931 1.090555,-0.54474 2.326166,-0.71899 3.541525,-0.81361 2.649458,-0.20626 5.334858,-0.0722 7.944468,-0.5743 0.51365,-0.0988 1.02512,-0.22288 1.50781,-0.4244 0.4827,-0.20151 0.93772,-0.48355 1.29392,-0.86659 0.26234,-0.28211 0.4722,-0.62796 0.52352,-1.00976 0.0353,-0.2627 -0.005,-0.52933 -0.0553,-0.78965 -0.0499,-0.26033 -0.1092,-0.52106 -0.11128,-0.78611 -0.003,-0.32051 0.0791,-0.63659 0.19149,-0.93675 0.1124,-0.30016 0.25562,-0.58768 0.38281,-0.88188 0.97661,-2.25905 0.97207,-4.80086 1.38788,-7.22659 0.32727,-1.90922 0.92471,-3.81701 0.71788,-5.743 -0.0597,-0.55549 -0.18653,-1.10414 -0.38286,-1.62719 -0.29891,-0.79637 -0.75361,-1.52309 -1.19646,-2.24934 -0.28266,-0.46355 -0.56275,-0.93138 -0.77173,-1.43248 -0.20899,-0.5011 -0.34579,-1.03991 -0.32901,-1.58258 0.0292,-0.94286 0.51119,-1.80755 0.71787,-2.72794 0.17151,-0.76376 0.14465,-1.59024 -0.19143,-2.2972 -0.30409,-0.63967 -0.85272,-1.15276 -1.49741,-1.44606 -0.74522,-0.33903 -1.59371,-0.38829 -2.40807,-0.30392 -0.81436,0.0844 -1.60936,0.29545 -2.41181,0.45782 -3.997626,0.80891 -8.125922,0.40332 -12.203873,0.47857 -3.868134,0.0714 -7.837131,0.56666 -11.533853,-0.5743 -0.302516,-0.0934 -0.605059,-0.1981 -0.920371,-0.2266 -0.157656,-0.0142 -0.317876,-0.009 -0.472211,0.0262 -0.154334,0.0352 -0.302797,0.10106 -0.426033,0.20041 -0.189654,0.1529 -0.311142,0.37855 -0.372809,0.61423 -0.06167,0.23568 -0.06761,0.48239 -0.05792,0.72581 0.04491,1.12769 0.415758,2.21751 0.861451,3.25436 0.403665,0.93908 0.87625,1.86471 1.05288,2.8715 0.212675,1.21225 -0.02002,2.46117 -0.382866,3.63723 -0.735606,2.38422 -1.993272,4.56744 -3.015072,6.84374 -1.055555,2.3515 -1.86113,4.80747 -2.871502,7.17874 -0.225331,0.52883 -0.461322,1.05473 -0.631964,1.60365 -0.170642,0.54893 -0.275143,1.12557 -0.229484,1.69859 0.07665,0.962 0.571915,1.84863 1.19646,2.58434 0.550627,0.64863 1.20922,1.20761 1.690054,1.90954 0.419976,0.61309 0.694403,1.33113 0.750573,2.07215 0.02682,0.35378 0.0022,0.71991 -0.14343,1.04345 -0.0585,0.12999 -0.137212,0.25646 -0.147103,0.39866 -0.0079,0.11319 0.02905,0.22417 0.04332,0.33673 0.0071,0.0563 0.0085,0.11395 -0.0041,0.16926 -0.01261,0.0553 -0.04011,0.10837 -0.08358,0.14483 -0.03014,0.0253 -0.06718,0.0419 -0.105794,0.0495 -0.03862,0.008 -0.07876,0.006 -0.11719,-0.002 -0.07686,-0.0169 -0.145448,-0.0611 -0.203319,-0.11443 -0.115742,-0.10663 -0.1946,-0.25091 -0.320474,-0.34537 -0.115212,-0.0865 -0.259958,-0.1235 -0.402515,-0.14417 -0.142557,-0.0207 -0.287591,-0.0271 -0.427463,-0.0615 -0.266503,-0.0656 -0.499793,-0.23005 -0.693495,-0.42449 -0.193702,-0.19444 -0.352943,-0.41977 -0.520033,-0.63751 -0.16709,-0.21773 -0.345389,-0.43125 -0.567445,-0.59256 -0.222055,-0.1613 -0.494057,-0.26762 -0.767709,-0.24658 -0.271037,0.0208 -0.522236,0.16547 -0.711937,0.36017 -0.189701,0.1947 -0.323586,0.43694 -0.433654,0.6855 -0.110068,0.24855 -0.198578,0.5063 -0.311284,0.75368 -0.112705,0.24737 -0.252022,0.48713 -0.447838,0.67568 -0.331163,0.31888 -0.791878,0.46277 -1.242734,0.55267 -0.450856,0.0899 -0.914922,0.13767 -1.341614,0.3088 -0.450061,0.18051 -0.837258,0.49064 -1.179195,0.83446 -0.341938,0.34383 -0.644772,0.72425 -0.974429,1.07987 -1.276508,1.37704 -2.924165,2.35097 -4.597503,3.20283 -1.673338,0.85185 -3.404329,1.60566 -4.974161,2.63587 -0.26799,0.17587 -0.533726,0.36107 -0.832061,0.47831 -0.298334,0.11724 -0.638808,0.16135 -0.938697,0.0481 -0.15089,-0.057 -0.287362,-0.15295 -0.389086,-0.27811 -0.101724,-0.12516 -0.168052,-0.27941 -0.185214,-0.43978 -0.02295,-0.21447 0.04139,-0.43069 0.141101,-0.62196 0.09971,-0.19126 0.233823,-0.36199 0.3621,-0.5354 0.128277,-0.17341 0.252701,-0.35298 0.329166,-0.55467 0.07647,-0.20169 0.101619,-0.42988 0.02908,-0.63302 -0.03967,-0.1111 -0.10729,-0.21125 -0.190477,-0.29489 -0.08319,-0.0837 -0.181712,-0.15116 -0.286552,-0.20525 -0.209679,-0.10817 -0.442175,-0.16256 -0.67157,-0.21774 -1.662864,-0.40003 -3.30341,-0.89309 -4.977264,-1.2443 -1.493866,-0.31344 -3.025739,-0.51346 -4.54654,-0.38289 -0.336716,0.0289 -0.673211,0.074 -1.011079,0.0663 -0.337868,-0.008 -0.682145,-0.0714 -0.9721,-0.24503 -0.181809,-0.10886 -0.336206,-0.25692 -0.496938,-0.39502 -0.160732,-0.13809 -0.333576,-0.2696 -0.534957,-0.33556 -0.161363,-0.0529 -0.335289,-0.0611 -0.503639,-0.039 -0.168349,0.0221 -0.33168,0.0739 -0.488706,0.13848 -0.197272,0.0812 -0.39196,0.18444 -0.604773,0.19909 -0.106406,0.007 -0.216112,-0.009 -0.31024,-0.0591 -0.09413,-0.0502 -0.17121,-0.13636 -0.198408,-0.23949 -0.02476,-0.0939 -0.0073,-0.19511 0.03168,-0.28403 0.03898,-0.0889 0.09827,-0.16728 0.159755,-0.24242 0.809617,-0.98936 2.03674,-1.52374 3.227089,-1.98999 1.322571,-0.51804 2.679925,-1.00058 4.095237,-1.12079 0.132017,-0.0112 0.264661,-0.0193 0.394848,-0.0439 0.130186,-0.0246 0.25891,-0.0665 0.369035,-0.14021 0.110124,-0.0737 0.200747,-0.18138 0.237084,-0.30879 0.01817,-0.0637 0.02251,-0.13159 0.01022,-0.19669 -0.01229,-0.0651 -0.04143,-0.12725 -0.08542,-0.17678 -0.076,-0.0856 -0.190839,-0.12829 -0.304573,-0.14106 -0.113735,-0.0128 -0.228522,0.001 -0.342484,0.0118 -0.113962,0.0105 -0.230287,0.0175 -0.34166,-0.009 -0.05569,-0.0132 -0.1097,-0.0348 -0.157155,-0.0668 -0.04745,-0.032 -0.08822,-0.0746 -0.114898,-0.12521 -0.03761,-0.0714 -0.04566,-0.15644 -0.02921,-0.23541 0.01645,-0.079 0.05634,-0.15196 0.108365,-0.21361 0.104053,-0.12329 0.251842,-0.19975 0.39618,-0.27182 0.499405,-0.24937 1.007235,-0.48441 1.534715,-0.66704 1.20877,-0.41852 2.501933,-0.55423 3.780804,-0.52645 1.486755,0.0323 2.963731,0.28094 4.450824,0.28716 0.89401,0.004 1.786183,-0.0802 2.680067,-0.0957 0.674828,-0.0117 1.352971,0.0154 2.022071,-0.0731 0.669099,-0.0885 1.340562,-0.30296 1.854452,-0.74051 0.432545,-0.36829 0.72895,-0.87335 0.945324,-1.39862 0.216374,-0.52528 0.359908,-1.0771 0.538286,-1.61646 0.880461,-2.66225 2.583033,-4.95836 4.163674,-7.27446 1.364355,-1.99918 2.668032,-4.07315 3.445799,-6.36515 0.365549,-1.07724 0.612954,-2.22046 0.478582,-3.35007 -0.120791,-1.01544 -0.546379,-1.99268 -0.526443,-3.01508 0.01238,-0.63484 0.197488,-1.25467 0.434346,-1.8438 0.236857,-0.58913 0.52646,-1.15597 0.762113,-1.74558 0.307086,-0.76833 0.522115,-1.57835 0.575249,-2.40407 0.05313,-0.82572 -0.05938,-1.66844 -0.383817,-2.42961 -0.186625,-0.43785 -0.441766,-0.84713 -0.586834,-1.30045 -0.06932,-0.21663 -0.11261,-0.44075 -0.177202,-0.65883 -0.06459,-0.21809 -0.15278,-0.43375 -0.299164,-0.60783 -0.125554,-0.14931 -0.290444,-0.263 -0.469185,-0.34116 -0.17874,-0.0782 -0.37125,-0.12175 -0.565134,-0.14335 -0.387768,-0.0432 -0.779247,1.2e-4 -1.169357,0.007 -1.215621,0.0211 -2.406125,-0.31239 -3.576861,-0.64034 -1.842438,-0.51612 -3.692702,-1.02763 -5.455849,-1.77078 -2.529953,-1.06635 -4.83527,-2.58976 -7.178748,-4.0201 -2.33742,-1.42664 -4.744285,-2.78061 -6.795883,-4.59439 -1.819666,-1.60873 -3.320275,-3.54589 -4.690113,-5.55157 -1.952525,-2.85883 -3.661838,-5.88053 -5.168699,-8.99736 -1.092164,-2.25906 -2.081243,-4.57614 -2.775782,-6.98732 -0.832657,-2.890675 -1.234717,-5.895266 -1.340036,-8.90163 -0.101703,-2.903141 0.07083,-5.807813 0.191434,-8.71023 0.154401,-3.715767 0.226141,-7.456701 0.957167,-11.103119 0.477268,-2.380652 1.235525,-4.707994 2.297201,-6.8916 1.378268,-2.834759 3.256222,-5.405913 5.36013,-7.75305 1.919335,-2.141225 4.043866,-4.121745 5.647283,-6.50874 1.294949,-1.927781 2.223561,-4.087176 2.871499,-6.31729 0.391461,-1.347358 0.68273,-2.724176 0.861451,-4.11582 0.235267,-1.831952 0.272039,-3.715809 -0.191435,-5.50371 -0.353892,-1.365176 -1.001163,-2.658201 -1.914334,-3.73294 -1.023738,-1.20487 -2.378878,-2.125437 -3.87652,-2.63221 -1.908069,-0.645654 -3.967955,-0.615745 -5.982292,-0.62216 -2.201722,-0.007 -4.402923,-0.06563 -6.604451,-0.0957 -1.526485,-0.02085 -3.07328,-0.03061 -4.546539,-0.43073 -0.857138,-0.23279 -1.675739,-0.594543 -2.536491,-0.81359 -1.136147,-0.289131 -2.32433,-0.323552 -3.493657,-0.23929 -2.290395,0.165047 -4.521188,0.775256 -6.764165,1.2674 -2.389467,0.524286 -4.8055829,0.916509 -7.2104641,1.36481 -0.244404,0.04556 -0.4909864,0.09189 -0.7394969,0.08471 -0.2485105,-0.0072 -0.5026169,-0.07236 -0.6962521,-0.228291 -0.199406,-0.160578 -0.320702,-0.413991 -0.320702,-0.670015 0,-0.256024 0.121296,-0.509437 0.320702,-0.670015 l 5e-6,-7e-5"
     id="path2820"
     inkscape:path-effect="#path-effect2822"
     inkscape:original-d="m 5.3221249,28.628741 c 0.553351,-1.37248 1.684443,-2.30545 2.967216,-3.30223 1.539285,-1.1961 5.6140431,-2.40363 7.0830311,-3.68508 1.499561,-1.30813 3.739925,-3.45197 5.072982,-4.92941 1.334254,-1.47877 2.037139,-3.47347 3.445799,-4.88155 1.311606,-1.31106 2.870025,-2.4137301 4.546541,-3.2065101 1.301549,-0.61546 2.736959,-0.95542 4.163675,-1.1486 1.485998,-0.2012 3.006995,-0.15349 4.498679,0 2.026081,0.20849 4.043628,0.61978 5.982292,1.24432 1.794577,0.57812 3.622672,1.21806 5.168698,2.2972001 2.442241,1.7047 4.117298,4.30528 6.221582,6.41301 2.359291,2.36316 5.218931,4.11638 7.274464,6.74803 0.897706,1.1493 1.969226,2.33829 2.632205,3.63723 0.896151,1.75577 1.591485,2.86348 2.201485,4.73797 0.444426,1.3657 1.150547,3.47396 1.435749,4.88155 0.425599,2.10051 0.694208,4.23278 0.909306,6.36515 0.23058,2.28582 0.883381,5.07873 0.717878,7.37019 -0.160596,2.22348 -0.956873,4.47506 -1.435749,6.6523 -0.277723,1.26268 -0.730046,5.58669 -1.413215,6.90659 -0.683176,1.31989 -0.879321,-0.0772 0.02532,0.84646 0.888031,0.90668 1.069746,-0.27932 2.350417,-0.76398 1.280667,-0.48466 2.128828,-0.74657 3.39258,-0.86321 1.815374,-0.16754 3.564282,-0.45753 5.360133,-0.14357 0.97998,0.17133 3.175324,1.11336 5.756886,1.30824 2.581561,0.19488 5.645049,-0.9317 6.638416,-0.87751 2.681582,0.14628 6.795637,-0.0235 9.475947,-0.19144 3.792678,-0.23756 7.945848,1.27913 11.725278,1.67504 3.25001,0.34045 3.15158,1.22302 6.26944,2.20149 3.06389,0.96152 4.54684,2.93447 7.32232,4.54653 1.21188,0.70388 2.14859,0.88915 2.05792,2.05791 -0.0138,0.17751 1.11104,1.40051 0.884,1.43223 -0.22704,0.0317 -0.39779,0.35176 -0.40542,0.52996 -0.0393,0.91573 -0.37798,0.9353 0.60042,0.53682 2.93835,-1.19671 2.52065,1.62423 3.2761,2.14324 1.42539,0.97932 3.15865,2.01006 4.11581,3.15866 0.47858,0.574299 2.69012,2.769019 4.38813,4.919269 1.69802,2.15026 2.88251,4.25602 3.60422,5.22669 1.25715,1.69083 0.91133,-1.29211 0.14357,0.67003 -0.0663,0.16938 -0.30324,0.1541 -0.53677,0.14 -0.23352,-0.014 0.2064,1.07374 0.1539,1.24788 -0.58748,1.948333 2.61604,3.530283 4.43646,4.958843 1.82041,1.428557 2.83203,2.608017 4.17803,4.134227 0.88943,1.00853 1.57581,2.27751 2.72559,3.19829 1.14979,0.92078 1.51867,0.48831 1.39024,1.82685 -0.0652,0.67967 -0.516,0.46682 -0.47858,1.1486 0.0541,0.98616 -0.13994,0.75791 0.91007,1.13903 1.04999,0.38113 2.19546,1.46738 3.0143,2.0196 0.99196,0.66899 3.25421,2.38988 4.35271,3.18477 1.0985,0.79489 1.27254,0.28093 1.05528,1.45751 -0.14763,0.79944 -1.24956,0.73136 -2.02686,0.77265 -0.77729,0.0413 -1.89993,0.5748 -2.66325,0.85452 -2.038,0.7468 -3.09935,1.68106 -5.07298,2.58436 -2.20658,1.0099 -4.57678,2.08084 -6.79589,3.06293 -2.6281,1.1631 -5.25102,2.17946 -7.89661,3.30222 -3.06592,1.30111 -6.04838,3.04552 -9.04523,4.49869 -1.43887,0.69767 -6.77313,1.39454 -8.32735,1.77075 -2.54359,0.61566 -0.76336,-0.49285 -3.35008,-0.0957 -1.36628,0.20977 -2.31425,0.37567 -3.58937,0.90932 -0.46069,0.19278 -1.58878,0.4761 -1.7229,0.95716 -0.38513,1.38128 0.9026,1.74297 1.43575,3.15864 0.38182,1.01388 0.77398,2.0753 0.76573,3.15866 -0.0146,1.91134 -0.45544,4.43125 -0.76573,6.31732 -0.42585,2.58845 -0.87564,5.85992 -0.62216,8.47091 6.64553,68.45226 -0.46336,4.06125 0.28715,7.17874 0.41477,1.7229 10.10982,10.3999 1.7229,6.6523 -1.40308,-0.62696 -0.10881,1.69985 -0.71788,3.11079 -0.50143,1.1616 -3.5574,4.42142 -4.45752,5.50966 -0.90012,1.08826 -0.21868,0.43566 -1.47691,0.56835 -0.43157,0.0455 -0.34267,-1.05512 -0.67001,-1.34003 -0.46807,-0.40739 -0.16313,-0.83349 -0.71788,-1.29218 -2.1405,-1.76985 -1.19522,-0.23929 -3.97224,-0.28714 -1.59503,-0.0275 -7.119568,-0.36096 -8.710198,-0.23931 -0.83686,0.064 -1.45324,0.35638 -2.249355,0.62218 -0.96131,0.32094 -2.08202,1.77503 -2.91935,1.14859 -0.57708,-0.43173 0.019,-1.53184 0.19143,-2.15361 0.23984,-0.86502 0.63473,-1.30249 1.05935,-2.15445 0.42463,-0.85194 1.1183,-0.96982 0.71141,-1.76995 -0.12277,-0.24142 -0.93113,-1.32956 -1.14907,-1.27486 -0.21795,0.0547 0.6331,-0.66211 0.57477,-0.92661 -0.19316,-0.87586 0.42542,-0.51853 1.38789,-0.90931 1.005545,-0.40826 2.458475,-0.74427 3.541525,-0.81361 2.591608,-0.1659 5.439018,0.10888 7.944468,-0.5743 0.34774,-0.0948 2.05972,-0.94767 2.80173,-1.29099 0.74202,-0.34333 0.22694,-0.65577 0.52352,-1.00976 0.59317,-0.708 -0.44853,-0.9123 -0.1666,-1.57576 0.17165,-0.40396 0.6066,-1.38088 0.5743,-1.81863 -0.24128,-3.2701 0.62497,-3.35663 1.38788,-7.22659 0.247,-1.2529 0.72063,-4.46597 0.71788,-5.743 -0.001,-0.55721 -0.17935,-1.10846 -0.38286,-1.62719 -0.58974,-1.50306 -0.59631,-0.75041 -1.19646,-2.24934 -0.19559,-0.4885 -1.10486,-2.4889 -1.10074,-3.01506 0.008,-0.99059 0.493,-1.76317 0.71787,-2.72794 0.14772,-0.63376 0.0106,-1.67862 -0.19143,-2.2972 -0.16128,-0.49371 -0.046,-1.3465 -1.49741,-1.44606 -1.45144,-0.0996 -4.32604,0.31478 -4.81988,0.1539 -2.4422,-0.79567 -9.639363,0.33478 -12.203873,0.47857 -3.695239,0.20722 -7.832948,-0.54238 -11.533853,-0.5743 -3.701457,-0.0319 1.575643,-1.47674 -1.818615,0 -0.39361,0.17125 -0.34922,0.91861 -0.430727,1.34004 -0.264491,1.36758 0.381387,1.94678 0.861451,3.25436 0.22265,0.60645 0.967745,2.23111 1.05288,2.8715 0.189955,1.42884 -1.537753,2.77475 -0.382866,3.63723 6.287164,4.69539 -2.076545,4.56062 -3.015072,6.84374 -1.031951,2.51038 -1.913435,4.75502 -2.871502,7.17874 -0.433961,1.09786 -0.97275,2.12699 -0.861448,3.30224 0.09701,1.02432 0.557911,1.77752 1.19646,2.58434 0.406272,0.51332 1.319055,1.37016 1.690054,1.90954 0.360946,0.52475 0.622285,1.59555 0.750573,2.07215 0.128291,0.47658 -0.163619,0.40684 -0.14343,1.04345 0.008,0.2521 -0.0861,0.20467 -0.147103,0.39866 -0.06101,0.19399 0.198214,0.58157 -0.04433,0.65082 -0.52834,0.15081 0.0713,0.29052 -0.746777,-0.41267 -0.818074,-0.70319 -2.862427,-2.53644 -0.829978,-0.20569 4.064896,4.66151 17.321123,19.9045 -2.548682,-1.90114 -0.886032,-0.97235 -1.426131,2.47503 -1.904713,2.47503 -0.478582,0 -1.769429,0.46088 -2.584348,0.86147 -2.001264,0.98369 -0.266464,0.72631 -2.153624,1.91433 -1.597619,1.00573 -9.093082,5.64726 -9.571664,5.8387 -0.478582,0.19143 -0.789009,0.40215 -1.770758,0.52645 -0.286628,0.0363 -0.398333,-0.48874 -0.5743,-0.71789 -0.648591,-0.84459 1.466829,-1.46895 0.861448,-2.34505 -1.55817,-2.25491 1.561502,-0.3081 -1.148599,-0.71788 -1.773654,-0.26818 -3.570171,-0.13171 -4.977264,-1.2443 -0.316574,-0.25033 -4.183163,-0.20728 -4.54654,-0.38289 -0.336245,-0.16246 -0.720519,-0.0329 -1.983179,-0.17871 -1.26266,-0.14583 -0.819351,-0.42354 -1.031895,-0.73058 -0.251126,-0.3628 -1.393333,0.45128 -0.992345,0.0995 0.400984,-0.35174 -1.4835,0.14074 -1.113421,-0.0995 1.312349,-0.85203 -1.270768,0.0305 0.191431,-0.52645 0.526867,-0.20067 2.558401,-1.81784 3.227089,-1.98999 0.668688,-0.17215 4.233925,-0.57433 4.095237,-1.12079 -0.06683,-0.26331 1.293657,-1.02032 0.925761,-0.86637 -0.367894,0.15394 -1.172002,-0.0733 -1.26077,-0.33011 -0.114236,-0.33039 0.1162,-0.54606 0.475335,-0.72084 0.359139,-0.17478 1.134133,-0.50013 1.534715,-0.66704 1.103936,-0.45995 2.584906,-0.51828 3.780804,-0.52645 1.741666,-0.0118 2.711823,0.19023 4.450824,0.28716 0.892539,0.0498 2.105769,-0.19143 2.680067,-0.0957 0.574304,0.0957 2.907934,0.0862 3.876523,-0.81358 0.920876,-0.85549 0.75703,-1.81536 1.48361,-3.01508 1.376629,-2.27304 2.849492,-4.97518 4.163674,-7.27446 1.168813,-2.04493 2.908683,-3.94813 3.445799,-6.36515 0.244703,-1.10117 0.460666,-2.17359 0.478582,-3.35007 0.0104,-0.68199 -0.233864,-2.40326 -0.526443,-3.01508 -0.671665,-1.40458 0.560319,-2.2356 1.196459,-3.58938 0.358105,-0.76208 0.165574,-3.99174 0.191432,-4.83368 0.01498,-0.48712 -0.311096,-0.80089 -0.586834,-1.30045 -0.275743,-0.49958 -0.501168,-1.18494 -0.476366,-1.26666 0.01811,-0.0597 -0.978351,-0.25509 -2.203676,-0.47763 -1.225325,-0.22251 -2.679514,-0.47217 -3.576861,-0.64034 -1.559323,-0.29226 -5.072983,-1.77078 -5.455849,-1.77078 -0.382866,0 -4.844198,-2.58078 -7.178748,-4.0201 -2.327588,-1.435 -4.761737,-2.76705 -6.795883,-4.59439 -1.802133,-1.61893 -3.299439,-3.56799 -4.690113,-5.55157 -1.985552,-2.83207 -3.664911,-5.88259 -5.168699,-8.99736 -1.089616,-2.2569 -2.122349,-4.56784 -2.775782,-6.98732 -0.782362,-2.896847 -1.148961,-5.907087 -1.340036,-8.90163 -0.184926,-2.89822 0.03473,-5.81035 0.191434,-8.71023 0.200445,-3.709359 0.205066,-7.465299 0.957167,-11.103119 0.490259,-2.37132 1.214986,-4.72544 2.297201,-6.8916 1.404174,-2.81061 3.434367,-5.27059 5.36013,-7.75305 1.760599,-2.26956 4.095706,-4.09146 5.647283,-6.50874 1.249464,-1.9466 2.15162,-4.11907 2.871499,-6.31729 0.436226,-1.33206 0.741366,-2.7193 0.861451,-4.11582 0.157266,-1.82893 0.296581,-3.61856 -0.191435,-5.50371 -0.350456,-1.35376 -0.987978,-2.68539 -1.914334,-3.73294 -1.03467,-1.17005 -2.395006,-2.13758 -3.87652,-2.63221 -1.893641,-0.63222 -3.980936,-0.50382 -5.982292,-0.62216 -2.197876,-0.12995 -4.405998,0.0242 -6.604451,-0.0957 -1.520039,-0.0829 -3.972239,-0.33501 -4.546539,-0.43073 -0.574299,-0.0957 -1.54597,-0.54064 -2.536491,-0.81359 -1.049872,-0.2893 -2.405257,-0.27554 -3.493657,-0.23929 -1.242502,0.0414 -3.886377,0.67818 -6.764165,1.2674 -2.877786,0.58922 -5.9894841,1.13086 -7.2104641,1.36481 -2.5389496,0.48648 0.0997,1.18059 -1.435749,-0.14358 -0.3505506,-0.30231 -0.173093,-0.9107 0,-1.34003 z"
     sodipodi:nodetypes="csssssssssssssssssssssssssssssssssssssssssssssssssssssssssssssssssssssssssssssssssssssssssssssssssssssssssssssssssssssssssssssssssssssssssssssssssssssssssssssssssssssssssssssss" />
</svg>
