<?xml version="1.0" encoding="UTF-8" standalone="no"?>
<!-- Created with Inkscape (http://www.inkscape.org/) -->

<svg
   xmlns:dc="http://purl.org/dc/elements/1.1/"
   xmlns:cc="http://creativecommons.org/ns#"
   xmlns:rdf="http://www.w3.org/1999/02/22-rdf-syntax-ns#"
   xmlns:svg="http://www.w3.org/2000/svg"
   xmlns="http://www.w3.org/2000/svg"
   xmlns:sodipodi="http://sodipodi.sourceforge.net/DTD/sodipodi-0.dtd"
   xmlns:inkscape="http://www.inkscape.org/namespaces/inkscape"
   width="172.79898mm"
   height="157.52007mm"
   viewBox="0 0 172.79898 157.52007"
   version="1.1"
   id="svg8"
   inkscape:version="0.92.4 (5da689c313, 2019-01-14)"
   sodipodi:docname="logo-inkscape.svg">
  <defs
     id="defs2">
    <filter
       style="color-interpolation-filters:sRGB"
       inkscape:label="Drop Shadow"
       id="filter1294">
      <feFlood
         flood-opacity="0.705882"
         flood-color="rgb(0,0,0)"
         result="flood"
         id="feFlood1284" />
      <feComposite
         in="flood"
         in2="SourceGraphic"
         operator="in"
         result="composite1"
         id="feComposite1286" />
      <feGaussianBlur
         in="composite1"
         stdDeviation="0"
         result="blur"
         id="feGaussianBlur1288" />
      <feOffset
         dx="1.6"
         dy="1.5"
         result="offset"
         id="feOffset1290" />
      <feComposite
         in="SourceGraphic"
         in2="offset"
         operator="over"
         result="composite2"
         id="feComposite1292" />
    </filter>
  </defs>
  <sodipodi:namedview
     id="base"
     pagecolor="#ffffff"
     bordercolor="#666666"
     borderopacity="1.0"
     inkscape:pageopacity="0.0"
     inkscape:pageshadow="2"
     inkscape:zoom="1.3232369"
     inkscape:cx="329.28412"
     inkscape:cy="255.59222"
     inkscape:document-units="mm"
     inkscape:current-layer="layer2"
     showgrid="false"
     inkscape:window-width="1687"
     inkscape:window-height="1408"
     inkscape:window-x="-7"
     inkscape:window-y="0"
     inkscape:window-maximized="0"
     showguides="true"
     inkscape:guide-bbox="true"
     fit-margin-top="0.3"
     fit-margin-left="0.3"
     fit-margin-right="0.3"
     fit-margin-bottom="0.3"
     inkscape:pagecheckerboard="true"
     borderlayer="false"
     inkscape:showpageshadow="false">
    <sodipodi:guide
       position="-29.792789,78.381029"
       orientation="0,1"
       id="guide884"
       inkscape:locked="false" />
    <sodipodi:guide
       position="86.379093,178.35683"
       orientation="1,0"
       id="guide886"
       inkscape:locked="false" />
  </sodipodi:namedview>
  <metadata
     id="metadata5">
    <rdf:RDF>
      <cc:Work
         rdf:about="">
        <dc:format>image/svg+xml</dc:format>
        <dc:type
           rdf:resource="http://purl.org/dc/dcmitype/StillImage" />
        <dc:title></dc:title>
      </cc:Work>
    </rdf:RDF>
  </metadata>
  <g
     inkscape:groupmode="layer"
     id="layer6"
     inkscape:label="black bg"
     sodipodi:insensitive="true" />
  <g
     inkscape:groupmode="layer"
     id="layer4"
     inkscape:label="red circle"
     style="display:inline"
     transform="translate(-10.710256,-18.018778)"
     sodipodi:insensitive="true">
    <ellipse
       style="opacity:0.98999999;fill:#b2282f;fill-opacity:1;fill-rule:evenodd;stroke:none;stroke-width:0.1289385;stroke-miterlimit:4;stroke-dasharray:none;stroke-opacity:1"
       id="path919"
       cx="96.99308"
       cy="97.219543"
       rx="48.823269"
       ry="49.797363" />
  </g>
  <g
     transform="translate(-10.710256,-18.018778)"
     style="display:inline"
     inkscape:label="blue circle"
     id="g862"
     inkscape:groupmode="layer"
     sodipodi:insensitive="true">
    <circle
       r="38.400124"
       cy="97.219551"
       cx="97.108696"
       id="circle860"
       style="opacity:0.98999999;fill:#0d1d41;fill-opacity:1;fill-rule:evenodd;stroke:none;stroke-width:0.100415;stroke-miterlimit:4;stroke-dasharray:none;stroke-opacity:1" />
  </g>
  <g
     inkscape:groupmode="layer"
     id="layer2"
     inkscape:label="small red circles"
     style="display:inline">
    <ellipse
       style="opacity:1;fill:#b2282f;fill-opacity:1;fill-rule:evenodd;stroke:none;stroke-width:4.77299976;stroke-miterlimit:4;stroke-dasharray:none;stroke-opacity:1"
       id="path865"
       cx="85.779236"
       cy="18.253775"
       rx="6.598403"
       ry="5.2987175" />
    <ellipse
       style="opacity:1;fill:#b2282f;fill-opacity:1;fill-rule:evenodd;stroke:none;stroke-width:4.77299976;stroke-miterlimit:4;stroke-dasharray:none;stroke-opacity:1"
       id="path867"
       cx="29.222221"
       cy="59.402405"
       rx="5.2987175"
       ry="3.3991773" />
    <ellipse
       style="opacity:1;fill:#b2282f;fill-opacity:1;fill-rule:evenodd;stroke:none;stroke-width:4.77299976;stroke-miterlimit:4;stroke-dasharray:none;stroke-opacity:1"
       id="path869"
       cx="50.602116"
       cy="126.13363"
       rx="6.1841416"
       ry="7.792151" />
    <ellipse
       style="opacity:1;fill:#b2282f;fill-opacity:1;fill-rule:evenodd;stroke:none;stroke-width:4.77299976;stroke-miterlimit:4;stroke-dasharray:none;stroke-opacity:1"
       id="path873"
       cx="121.043"
       cy="127.56471"
       rx="8.8701515"
       ry="6.8357368" />
  </g>
  <g
     inkscape:label="rust logo"
     inkscape:groupmode="layer"
     id="layer1"
     style="display:inline;opacity:1"
     transform="translate(-10.710256,-18.018778)"
     sodipodi:insensitive="true">
    <path
       id="path3723"
       style="fill:#0d1d41;fill-opacity:1;fill-rule:evenodd;stroke:none;stroke-width:5.6718111"
       d="m 364.27344,69.236328 c -2.8671,0 -5.73303,1.261201 -7.28711,3.785156 l -15.42578,24.927735 -7.26563,0.708984 -19.98242,-21.433594 c -4.04968,-4.333247 -12.22881,-2.72755 -14.30469,2.853516 l -10.23633,27.382815 -7.0625,2.13867 -23.73046,-17.078126 c -4.82105,-3.482487 -12.52956,-0.27127 -13.48243,5.582032 l -4.70703,28.875004 -6.48242,3.47656 -26.625,-12.13867 c -5.4109,-2.47291 -12.35186,2.17275 -12.125,8.10547 l 1.01953,29.30078 -5.625,4.6289 -28.53515,-6.72656 c -5.79659,-1.34987 -11.6835,4.52568 -10.32227,10.32227 l 6.7207,28.54101 -4.61718,5.61524 -29.30079,-1.02149 c -5.91003,-0.16936 -10.56703,6.7086 -8.10546,12.13086 l 12.13867,26.63086 -3.47657,6.48242 -28.871089,4.69531 c -5.864647,0.95287 -9.039891,8.66138 -5.580078,13.48243 l 17.078127,23.71875 -2.14453,7.06836 -27.382816,10.23632 c -5.558358,2.07594 -7.186405,10.24953 -2.841796,14.31055 l 21.421874,19.97656 -0.708984,7.25977 -24.921875,15.42773 c -5.04791,3.11948 -5.04791,11.4739 0,14.58203 l 24.921875,15.42774 0.708984,7.25976 -21.421874,19.98047 c -4.344609,4.04977 -2.716562,12.21745 2.841796,14.30469 l 27.382816,10.23828 2.14453,7.06641 -17.078127,23.72656 c -3.471152,4.83239 -0.278634,12.53313 5.585938,13.47461 l 28.865229,4.69727 3.47657,6.49414 -12.13867,26.61718 c -2.47291,5.41089 2.19543,12.37104 8.10546,12.13282 l 29.28907,-1.02735 4.6289,5.62696 -6.7207,28.54687 c -1.36123,5.78525 4.52568,11.66006 10.32227,10.29883 l 28.53515,-6.7207 5.625,4.61718 -1.01953,29.30664 c -0.22681,5.93269 6.7141,10.57053 12.125,8.09766 l 26.625,-12.13086 6.48242,3.47656 4.70703,28.85742 c 0.95286,5.876 8.66138,9.05357 13.48243,5.59376 l 23.71875,-17.08985 7.06835,2.15039 10.23633,27.3711 c 2.07594,5.55832 10.25503,7.19774 14.30469,2.84179 l 19.98242,-21.42187 7.26563,0.72656 15.42578,24.92188 c 3.10816,5.02522 11.46448,5.03656 14.58398,0 l 15.42578,-24.92188 7.25977,-0.72656 19.97656,21.42187 c 4.04969,4.35595 12.22882,2.71653 14.30469,-2.84179 l 10.23828,-27.3711 7.06641,-2.15039 23.72461,17.08985 c 4.82101,3.45981 12.5237,0.27116 13.47656,-5.59376 l 4.70703,-28.85742 6.48438,-3.47656 26.62304,12.13086 c 5.41096,2.47287 12.34246,-2.15363 12.12696,-8.09766 l -1.02149,-29.30664 5.62109,-4.61718 28.53321,6.7207 c 5.79662,1.36123 11.67963,-4.51358 10.31836,-10.29883 l -6.72071,-28.54687 4.61524,-5.62696 29.30078,1.02735 c 5.91005,0.23811 10.58389,-6.72193 8.09961,-12.13282 l -12.13086,-26.61718 3.4707,-6.49414 28.86914,-4.69727 c 5.876,-0.94148 9.06453,-8.64222 5.58203,-13.47461 l -17.07812,-23.72656 2.14258,-7.06641 27.3789,-10.23828 c 5.56974,-2.08732 7.19774,-10.25504 2.8418,-14.30469 l -21.41797,-19.98047 0.70899,-7.25976 24.92187,-15.42774 c 5.04794,-3.10813 5.05377,-11.46254 0.004,-14.58203 l -24.91992,-15.42773 -0.70899,-7.25977 21.41797,-19.97656 c 4.35594,-4.06103 2.72794,-12.23465 -2.8418,-14.31055 l -27.3789,-10.23632 -2.14258,-7.06836 17.07812,-23.71875 c 3.4825,-4.82104 0.28251,-12.51822 -5.58203,-13.48243 l -28.86914,-4.69531 -3.4707,-6.48242 12.13086,-26.63086 c 2.48428,-5.42226 -2.13279,-12.35772 -8.09961,-12.13086 l -29.30078,1.02149 -4.62696,-5.61524 6.73243,-28.54101 c 1.36127,-5.79661 -4.51982,-11.6835 -10.31641,-10.32227 l -28.53516,6.72656 -5.62695,-4.6289 1.02735,-29.30078 c 0.22639,-5.93272 -6.71607,-10.56704 -12.12696,-8.10547 l -26.62304,12.13867 -6.48438,-3.47656 -4.70703,-28.875004 c -0.95282,-5.853309 -8.65555,-9.05318 -13.47656,-5.582032 l -23.73633,17.078126 -7.05469,-2.13867 -10.23828,-27.382815 c -2.07591,-5.581066 -10.255,-7.186763 -14.30469,-2.853516 L 394.25595,98.658203 386.99618,97.949219 371.5704,73.021484 c -1.55975,-2.523955 -4.42977,-3.785156 -7.29687,-3.785156 z m -0.93164,52.253902 c 8.81398,0 17.62458,5.8726 17.61914,17.61915 -0.004,9.73248 -7.89447,17.62109 -17.62696,17.62109 -9.73248,0 -17.6244,-7.88861 -17.6289,-17.62109 0.005,-11.74655 8.82273,-17.61915 17.63672,-17.61915 z m -39.31641,28.91602 -0.0195,0.16016 c 0,0 15.66339,16.45304 27.06836,27.82421 3.27863,3.13458 6.49218,4.69565 8.79883,5.07422 2.07008,0.3398 4.66421,0.51025 7.15234,-0.0117 1.63749,-0.44838 3.21219,-1.17627 4.67188,-2.15624 0.16069,-0.13216 0.32262,-0.26301 0.47656,-0.40821 5.26901,-4.96947 9.7813,-8.99681 32.07031,-30.37305 0,0 0.19504,-0.0631 0.19922,-0.0645 A 217.19247,217.4407 0 0 1 409,151.47461 c 1.82561,0.38433 3.64285,0.79459 5.45312,1.22461 a 217.19247,217.4407 0 0 1 5.73438,1.44531 c 6.21264,1.65581 12.33222,3.56625 18.33203,5.75 a 217.19247,217.4407 0 0 1 0.0195,0.008 217.19247,217.4407 0 0 1 1.44336,0.54688 c 47.32618,17.61319 87.44564,51.34747 112.8418,95.88672 l -0.11133,0.25 c -0.0262,0.0589 -1.63631,3.69785 -2.0957,4.73242 -2.99101,6.73586 -12.761,28.76166 -18.1875,41.51758 -1.68771,4.21029 -1.8868,7.90194 -1.37891,10.18359 0.39156,1.75924 1.08486,3.74178 2.19336,5.54297 0.225,0.34891 0.45869,0.6918 0.71094,1.02344 0.0173,0.0228 0.0314,0.0476 0.0488,0.0703 0.46715,0.60742 0.99315,1.17119 1.54882,1.71094 0.76432,0.68701 1.63193,1.28621 2.62696,1.74609 6.57057,3.03687 13.92683,6.48197 42.02539,19.18555 l 0.0352,0.0156 c 0.70946,7.13518 1.05234,14.29722 1.05274,21.46094 a 217.19247,217.4407 0 0 1 0.01,0.18359 217.19247,217.4407 0 0 1 -0.008,0.22461 c -0.01,5.27256 -0.20167,10.54591 -0.5957,15.8086 l -0.0117,0.006 a 217.19247,217.4407 0 0 1 -41.94531,112.7207 h 0.38867 c -1.73113,2.31707 -3.51258,4.59495 -5.33398,6.83984 a 217.19247,217.4407 0 0 1 -0.87891,1.07422 c -3.50995,4.26992 -7.17728,8.40785 -11.00391,12.39844 a 217.19247,217.4407 0 0 1 -2.86133,3.22461 l -0.0215,-0.27148 -28.51367,-6.12891 c -2.83939,-0.56352 -5.65533,-1.10937 -8.29883,-1.58594 -3.88461,-0.70034 -7.26005,-0.35528 -9.47656,0.37695 -0.0335,0.0126 -0.0682,0.0224 -0.10157,0.0352 -0.14276,0.0487 -0.2659,0.10446 -0.39843,0.15625 -0.30582,0.12676 -0.60348,0.26898 -0.90039,0.41406 -0.24511,0.12378 -0.48753,0.23948 -0.73828,0.38672 -0.0367,0.0204 -0.0728,0.0419 -0.10938,0.0625 -3.0556,1.83051 -6.3859,5.33149 -7.32812,9.35547 -1.65026,7.04733 -2.56023,12.44552 -9.3379,42.51953 l -0.0117,0.0488 22.58398,-15.80469 c 1.16337,-12.01188 12.14569,-17.02471 21.53125,-15.07031 6.2e-4,1.3e-4 10e-4,-1.3e-4 0.002,0 7.29402,1.51962 13.62401,7.24014 13.6211,17.19531 -0.003,9.73368 -7.89327,17.62305 -17.62696,17.62305 -9.73364,0 -17.62607,-7.88937 -17.6289,-17.62305 2.3e-4,-0.73088 0.0352,-1.43763 0.10156,-2.12304 l -22.58398,15.80468 c 0,0 0.27932,-0.0354 0.36523,-0.0469 a 217.19247,217.4407 0 0 1 -9.34766,3.85351 c -3.74459,1.49743 -7.51959,2.88943 -11.32226,4.16993 a 217.19247,217.4407 0 0 1 -12.4082,3.77929 c -1.22645,0.33284 -2.45679,0.64224 -3.6875,0.95313 a 217.19247,217.4407 0 0 1 -53.30664,7.06445 217.19247,217.4407 0 0 1 -79.68555,-15.66797 c -1.68653,-0.66737 -3.36564,-1.35907 -5.03906,-2.07031 a 217.19247,217.4407 0 0 1 -7.16016,-2.94531 l 0.59766,0.041 -1.69532,-7.91601 c -1.8913,-8.77707 -5.01696,-22.9779 -7.64648,-33.13086 -1.13726,-4.39113 -3.24789,-7.59471 -5.00977,-9.13086 -1.84534,-1.60898 -4.84051,-3.11712 -8.00976,-3.66406 -1.80389,-0.249 -3.67689,-0.21168 -5.56055,0.19336 l -36.45312,7.82617 c 0,0 -0.0419,0.23237 -0.0508,0.2832 a 217.19247,217.4407 0 0 1 -14.03515,-16.30078 c -1.62255,-2.03802 -3.21097,-4.10317 -4.75977,-6.19922 h 0.0371 a 217.19247,217.4407 0 0 1 -34.34179,-70.04297 c -0.90418,-3.21871 -1.73702,-6.45434 -2.49024,-9.70508 a 217.19247,217.4407 0 0 1 -2.62109,-13.21289 c -0.37329,-2.23339 -0.72232,-4.47005 -1.02539,-6.71289 a 217.19247,217.4407 0 0 1 -2.24219,-29.08594 217.19247,217.4407 0 0 1 0.55273,-10.48046 c 0.12975,-2.67776 0.29809,-5.35443 0.52735,-8.0293 a 217.19247,217.4407 0 0 1 0.36914,-5.61524 l 0.10156,0.72852 30.22266,-13.42969 c 2.79299,-1.29154 5.50736,-2.56152 7.89843,-3.72265 1.7296,-0.83991 3.1947,-1.80761 4.41407,-2.79493 4.77066,-4.55549 6.4404,-11.77777 3.61132,-18.16211 l -7.82226,-17.68554 h 0.0449 c -1.91867,-4.23396 -3.05006,-6.70616 -6.78711,-15.01953 0,0 -5.08072,-11.04456 -5.24219,-11.80469 -0.0142,-0.067 -0.17847,0.0752 -0.40429,0.30273 a 217.19247,217.4407 0 0 1 28.24023,-39.15234 h -0.0606 c 1.1577,-1.29368 2.33348,-2.56696 3.51954,-3.83008 a 217.19247,217.4407 0 0 1 8.85156,-8.90429 c 2.32947,-2.20962 4.7078,-4.35996 7.12695,-6.45899 a 217.19247,217.4407 0 0 1 9.23047,-7.57422 c 2.69341,-2.08878 5.43195,-4.11335 8.2168,-6.07031 a 217.19247,217.4407 0 0 1 9.40039,-6.24024 c 3.0415,-1.90921 6.12812,-3.74641 9.25976,-5.50195 a 217.19247,217.4407 0 0 1 9.34766,-4.93945 c 3.43677,-1.71224 6.91703,-3.33823 10.44336,-4.86719 a 217.19247,217.4407 0 0 1 9.00781,-3.66406 c 3.86612,-1.47429 7.77639,-2.84201 11.73047,-4.0957 a 217.19247,217.4407 0 0 1 8.26758,-2.44532 c 4.34589,-1.19012 8.73881,-2.24523 13.16992,-3.16601 a 217.19247,217.4407 0 0 1 3.86914,-0.92969 z M 153.04102,281.08789 c 8.81399,0 17.62695,5.87497 17.62695,17.62695 0,9.73568 -7.89128,17.62891 -17.62695,17.62891 -9.73567,0 -17.62891,-7.89323 -17.62891,-17.62891 0,-11.75198 8.81491,-17.62695 17.62891,-17.62695 z m 420.59765,0.83789 c 8.81402,0 17.62273,5.87075 17.61133,17.61133 -0.008,9.72899 -7.89995,17.61133 -17.62891,17.61133 -9.72899,0 -17.6175,-7.88234 -17.62695,-17.61133 0.0113,-11.74058 8.83052,-17.61133 17.64453,-17.61133 z M 232.74023,529.5 c 8.81401,0 17.62649,5.8745 17.62305,17.62305 -0.003,9.73364 -7.89525,17.62304 -17.6289,17.62304 -9.73366,0 -17.62411,-7.8894 -17.62696,-17.62304 0.003,-11.74855 8.81881,-17.62305 17.63281,-17.62305 z"
       transform="scale(0.26458333)"
       inkscape:connector-curvature="0" />
    <path
       style="opacity:0.98999999;fill:#0d1d41;fill-opacity:0;fill-rule:evenodd;stroke:none;stroke-width:0.75326991;stroke-miterlimit:4;stroke-dasharray:none;stroke-opacity:1"
       d="m 360.66195,660.86911 c -2.08653,-1.04472 -4.17328,-3.80775 -10.15315,-13.44366 -4.13977,-6.67077 -7.99134,-12.67806 -8.55904,-13.34952 -0.68383,-0.8088 -2.23267,-1.22084 -4.58906,-1.22084 h -3.55687 l -8.87092,9.58909 c -12.27689,13.27081 -12.83001,13.72557 -16.69464,13.72557 -5.42977,0 -6.94056,-2.10334 -12.69494,-17.67402 -2.75164,-7.44564 -5.38742,-13.90524 -5.85727,-14.35465 -0.46985,-0.4494 -2.26779,-1.21704 -3.99543,-1.70584 l -3.14117,-0.88873 -11.5245,8.35679 c -14.61434,10.59733 -15.1313,10.86943 -18.64845,9.81567 -5.33341,-1.59792 -5.90492,-2.89323 -8.72145,-19.76702 -1.40462,-8.41503 -2.5599,-15.37818 -2.56728,-15.47367 -0.008,-0.0955 -1.59091,-0.97531 -3.51896,-1.95517 l -3.50553,-1.78157 -13.60442,6.27456 c -15.99559,7.37741 -17.97452,7.70571 -22.02606,3.65417 l -2.6306,-2.63059 0.55058,-16.22046 0.55057,-16.22045 -2.5453,-2.17678 c -1.39992,-1.19723 -3.08951,-2.19054 -3.75465,-2.20735 -0.66514,-0.0168 -7.60313,1.49425 -15.41776,3.3579 -8.46531,2.01884 -15.03165,3.21347 -16.24512,2.95551 -2.60607,-0.55399 -6.61227,-5.09056 -6.61227,-7.48766 0,-1.01389 1.55304,-8.45344 3.4512,-16.53235 l 3.45121,-14.68891 -2.41992,-2.75612 -2.41991,-2.75613 -11.74851,0.31697 c -20.74257,0.55963 -20.79175,0.55642 -22.9829,-1.50318 -1.07382,-1.00935 -2.32099,-3.06543 -2.7715,-4.56908 -0.77662,-2.59213 -0.4755,-3.48581 5.80661,-17.23353 l 6.62571,-14.49963 -1.84551,-3.4672 -1.84552,-3.4672 -15.38706,-2.48095 c -13.903343,-2.24174 -15.588547,-2.67401 -17.47662,-4.4829 -2.39889,-2.29828 -3.415525,-6.31455 -2.247374,-8.87836 0.4411,-0.96811 4.629496,-7.06374 9.307546,-13.54584 8.830678,-12.23615 8.985858,-12.61961 7.021188,-17.34954 -0.88523,-2.1312 -2.03648,-2.70807 -14.779535,-7.4057 -16.127912,-5.94543 -18.143087,-7.36034 -18.258529,-12.81978 -0.08053,-3.80844 0.02637,-3.93169 17.866222,-20.59822 l 5.906368,-5.51791 -0.49817,-3.87679 -0.49817,-3.87679 -12.709112,-7.80241 c -6.990011,-4.29133 -13.271158,-8.42346 -13.958104,-9.18253 -2.055975,-2.27182 -2.257063,-7.47 -0.380934,-9.84726 0.873921,-1.10735 7.173727,-5.46397 13.999568,-9.68135 6.825841,-4.2174 12.589142,-7.95685 12.807336,-8.3099 0.218194,-0.35304 0.567435,-2.25754 0.776092,-4.23222 l 0.379375,-3.59032 -10.993625,-10.10253 c -6.046494,-5.55641 -11.507952,-11.09714 -12.136575,-12.31277 -1.325267,-2.56278 -0.881916,-6.06276 1.092937,-8.62803 0.897968,-1.16644 5.98566,-3.46531 15.965459,-7.21398 l 14.647497,-5.50198 1.21428,-3.69126 c 0.66785,-2.0302 0.96911,-4.02971 0.66947,-4.44336 -12.683229,-17.50865 -18.053589,-25.60061 -18.053589,-27.2028 0,-2.6143 2.143112,-6.90361 3.926091,-7.85784 1.030945,-0.55174 29.173128,-5.76134 31.970708,-5.91832 0.35603,-0.02 3.21165,-5.99729 3.21165,-6.72254 0,-0.41585 -2.23006,-5.59051 -4.9557,-11.49926 -7.6733,-16.63454 -8.0231,-17.65561 -7.05421,-20.59138 0.45597,-1.3816 1.86587,-3.38443 3.13311,-4.45075 l 2.30408,-1.93875 16.09249,0.52543 c 15.26641,0.49846 16.15065,0.45195 17.22552,-0.90618 3.64078,-4.60024 3.64933,-3.41355 -0.14152,-19.63015 -3.75362,-16.05733 -3.81188,-17.82322 -0.691,-20.9441 3.08247,-3.08247 4.80702,-3.02011 20.81003,0.75255 16.27968,3.83788 15.02594,3.83211 19.74919,0.091 1.33993,-1.06132 1.38709,-1.99129 0.87139,-17.18417 l -0.5452,-16.06214 1.97355,-2.34542 c 1.08544,-1.28998 3.14706,-2.73272 4.58137,-3.20609 2.46743,-0.81432 3.37716,-0.51334 16.8974,5.59044 7.85926,3.54811 14.64144,6.4511 15.07152,6.4511 0.43008,0 2.09365,-0.66917 3.69683,-1.48705 3.33704,-1.70243 3.00904,-0.6604 5.68709,-18.06717 1.05007,-6.82518 2.3766,-13.456138 2.94785,-14.73547 1.29517,-2.900569 5.70386,-5.15407 8.85163,-4.524515 1.23045,0.24609 7.70622,4.399427 14.39059,9.229635 12.52188,9.04847 13.37675,9.41229 17.83847,7.59172 2.16896,-0.88503 2.74062,-2.01793 7.85454,-15.56608 5.69969,-15.100002 6.7478,-16.775467 11.0299,-17.631886 3.9455,-0.789101 6.31655,0.949968 16.86297,12.368314 9.26687,10.033014 10.63776,11.234913 12.81453,11.234913 4.78917,0 5.71357,-0.929064 13.59323,-13.661724 4.19294,-6.775338 8.28562,-12.917977 9.09483,-13.650309 0.80922,-0.732331 2.64543,-1.522046 4.08047,-1.754921 4.89806,-0.794844 6.59647,0.873256 15.40787,15.132818 8.09051,13.092924 8.12642,13.136462 11.22454,13.606697 1.70943,0.259459 3.57271,0.354665 4.14061,0.21157 0.56791,-0.143096 5.84737,-5.37784 11.73213,-11.632766 11.54738,-12.273741 13.07833,-13.241113 17.81987,-11.259971 1.36798,0.571578 3.01656,1.794951 3.66351,2.718604 0.64696,0.923654 3.48246,7.859582 6.30113,15.413172 l 5.12483,13.733799 3.69805,1.18259 3.69805,1.18259 10.21742,-7.38756 c 14.69749,-10.626802 15.85526,-11.355749 18.03124,-11.352633 2.58727,0.0037 6.67523,2.547136 7.69651,4.788589 0.44769,0.982584 1.88106,8.344394 3.18527,16.359594 l 2.37128,14.57307 3.48308,1.84209 3.48308,1.84209 13.81064,-6.2875 c 14.4439,-6.5758 17.16325,-7.22505 20.66146,-4.93293 3.57655,2.34344 3.92924,4.60324 3.28905,21.07379 l -0.58466,15.04171 2.74325,2.41604 c 1.50879,1.32882 3.08169,2.42647 3.49534,2.43921 0.41364,0.0127 7.14587,-1.49752 14.96049,-3.35615 7.81463,-1.85862 14.98048,-3.37931 15.92412,-3.37931 2.17802,0 5.88269,3.08821 7.03135,5.86131 0.75469,1.82198 0.38675,4.23777 -2.53474,16.64249 -1.87968,7.98113 -3.41759,15.00476 -3.41759,15.60807 0,0.60332 0.92506,2.30975 2.05569,3.79208 l 2.05569,2.69515 15.63015,-0.50227 c 13.26736,-0.42633 15.96753,-0.3278 17.86186,0.65179 2.52777,1.30717 4.5134,4.61893 4.5134,7.52774 0,1.07873 -2.86534,8.24651 -6.36743,15.9284 l -6.36743,13.96708 1.92886,3.29136 c 1.07288,1.83073 2.647,3.44894 3.54712,3.64646 0.89003,0.19531 7.83214,1.35407 15.42689,2.57503 11.42352,1.83648 14.11927,2.51173 15.60692,3.90931 2.30848,2.16869 3.45213,6.19199 2.48397,8.73844 -0.40166,1.05644 -4.61196,7.31147 -9.35623,13.90007 l -8.62596,11.97927 0.83377,3.31115 c 0.45856,1.82113 1.2192,3.63031 1.6903,4.02038 0.47111,0.39008 6.94844,2.96724 14.39409,5.72702 15.65216,5.80158 17.67401,7.25966 17.67401,12.74573 0,3.83663 0.11994,3.69275 -14.1016,16.91678 l -9.21305,8.56684 v 3.93467 3.93467 l 13.34952,8.1874 c 11.43271,7.01179 13.55597,8.60684 14.78738,11.10863 1.30602,2.65337 1.34051,3.201 0.37605,5.97197 -0.98807,2.83881 -2.01521,3.64299 -14.78739,11.57763 l -13.72556,8.52691 v 3.94884 3.94884 l 10.9703,10.10733 c 6.03367,5.55903 11.27947,10.67735 11.65733,11.37403 0.37786,0.69669 0.68702,2.66875 0.68702,4.38235 0,5.02267 -2.12723,6.47452 -18.2304,12.44237 l -14.09394,5.22323 -1.205,3.5988 c -1.40545,4.1974 -2.26624,2.43181 8.3289,17.08355 8.99257,12.43559 9.72521,13.97277 8.46009,17.75062 -1.57796,4.71205 -3.32633,5.43034 -19.41918,7.97815 -8.03344,1.27184 -15.05403,2.66469 -15.60132,3.09521 -0.54729,0.43053 -1.62285,2.01333 -2.39014,3.51732 l -1.39506,2.73456 6.32477,13.86164 c 3.47862,7.62391 6.33099,14.80916 6.33858,15.96723 0.0197,2.99942 -1.91216,6.33398 -4.42123,7.63147 -1.81793,0.94009 -4.53961,1.01578 -17.47326,0.48595 l -15.31992,-0.62757 -2.44428,2.66042 c -1.34435,1.46323 -2.44428,3.23025 -2.44428,3.9267 0,0.69646 1.54168,7.76647 3.42596,15.71114 l 3.42594,14.44486 -1.35771,2.77767 c -0.78287,1.60164 -2.48033,3.37875 -4.00922,4.19734 l -2.65151,1.41966 -14.84509,-3.4879 c -8.1648,-1.91833 -15.2916,-3.48789 -15.83731,-3.48789 -0.54571,0 -2.20823,1.09992 -3.69448,2.44428 l -2.70226,2.44427 0.60639,15.04171 c 0.67851,16.83081 0.3086,18.97233 -3.62881,21.00845 -1.25299,0.64794 -3.27224,1.17808 -4.48721,1.17808 -1.21498,0 -8.42361,-2.84584 -16.01917,-6.32409 l -13.81011,-6.32409 -3.38439,1.89772 -3.38438,1.8977 -2.45474,15.10354 c -1.38142,8.49965 -2.969,15.88843 -3.6309,16.89862 -1.5245,2.32667 -5.96445,4.17842 -8.49883,3.54456 -1.59298,-0.39842 -11.04392,-6.86818 -24.91245,-17.05416 -1.75705,-1.29049 -2.1618,-1.31015 -5.64986,-0.27431 l -3.75722,1.11578 -5.23519,14.12557 c -6.04733,16.31689 -7.39336,18.26204 -12.63715,18.26204 -4.18701,0 -4.62235,-0.34881 -16.32912,-13.08319 l -9.40107,-10.22629 -3.51868,-0.002 c -2.08559,-0.002 -3.96601,0.44474 -4.617,1.09573 -0.60408,0.60407 -4.57413,6.73572 -8.82234,13.6259 -6.31951,10.24962 -8.17653,12.71666 -10.21253,13.56735 -3.19827,1.33633 -3.87321,1.30973 -7.04335,-0.27754 z m 19.92428,-79.90748 c 11.05369,-1.00262 21.34127,-2.68238 32.71572,-5.34185 15.42809,-3.60724 39.55744,-12.08771 40.7612,-14.32586 0.30027,-0.5583 2.58861,-10.42179 5.0852,-21.91887 2.4966,-11.49708 5.03055,-21.85383 5.631,-23.01499 1.63799,-3.16752 6.0234,-6.67867 9.51635,-7.61923 3.68548,-0.99239 4.25951,-0.91039 27.17867,3.88293 l 17.85242,3.73366 4.52434,-4.83654 c 10.08922,-10.78541 20.78796,-25.4676 29.13889,-39.98814 14.1721,-24.64237 23.75029,-54.099 27.38959,-84.23358 1.21643,-10.07248 1.2895,-43.64576 0.0976,-44.83768 -0.43918,-0.43918 -10.37634,-5.17351 -22.08258,-10.52075 -11.70624,-5.34723 -21.9445,-10.30882 -22.7517,-11.02575 -2.30767,-2.04963 -4.22896,-6.98756 -4.24701,-10.91527 -0.0185,-4.03033 -0.0182,-4.03108 12.88379,-33.37475 l 8.98012,-20.42395 -3.13492,-5.14696 c -30.46354,-50.0155 -78.85744,-85.0232 -136.65941,-98.85814 l -9.23754,-2.21101 -15.95732,15.16949 c -8.77653,8.34323 -16.97265,15.79464 -18.21359,16.55871 -3.08206,1.89767 -10.02975,1.87205 -13.79903,-0.0509 -1.55862,-0.79515 -9.48538,-8.24713 -17.61502,-16.55997 l -14.78117,-15.11424 -9.61811,2.34101 c -38.25933,9.31221 -72.26055,27.80925 -100.03182,54.41843 -13.87977,13.29896 -27.09152,29.6001 -36.20826,44.67508 l -3.79035,6.26752 1.75218,3.88563 c 17.42787,38.648 19.44657,43.56874 19.44657,47.40251 0,4.06872 -1.90941,8.83786 -4.46286,11.14694 -0.76983,0.69615 -3.79643,2.45023 -6.72578,3.89796 -8.3132,4.10849 -34.42059,15.68779 -35.46752,15.73077 -0.56451,0.0232 -0.95127,1.11529 -0.96805,2.73356 -0.0153,1.48223 -0.33789,7.09467 -0.71672,12.47208 -0.79697,11.31321 0.0518,26.66967 2.28634,41.3647 4.72958,31.10347 16.06198,60.61895 33.35194,86.86589 6.19965,9.41132 19.46028,26.44955 23.50056,30.19523 l 2.14871,1.99205 18.42609,-4.03557 c 10.13435,-2.21956 19.70611,-4.04669 21.27058,-4.06026 5.62805,-0.0489 10.72216,3.18677 13.47708,8.56025 1.25757,2.45287 9.67389,37.16564 10.50052,43.30896 0.21286,1.58194 1.32679,2.33592 7.02177,4.75279 32.56533,13.82032 69.25995,19.9853 101.53155,17.05813 z M 498.9792,565.18474 c 12.60429,-3.61486 17.09976,-20.32267 8.01255,-29.7793 -8.22633,-8.56075 -24.06903,-6.39259 -29.09092,3.98124 -2.31183,4.7756 -2.36713,12.08365 -0.12394,16.37964 4.08722,7.82756 12.97818,11.77707 21.20231,9.41842 z m -258.18883,-2.14048 c 6.45297,-3.31808 9.6596,-8.75398 9.64013,-16.34203 -0.0113,-4.4216 -0.35962,-5.89411 -2.09415,-8.85385 -4.69298,-8.00796 -15.78475,-11.01686 -24.37435,-6.61209 -7.19913,3.69175 -10.75632,12.54367 -8.41484,20.94001 1.2878,4.61796 7.3251,10.88977 11.63954,12.09165 4.05832,1.13055 10.07829,0.58904 13.60367,-1.22369 z M 581.79741,315.46055 c 3.63211,-1.85296 7.76461,-6.69889 8.87597,-10.40829 3.87203,-12.92365 -5.66503,-24.58685 -18.98097,-23.21253 -11.79202,1.21705 -18.48724,11.25213 -15.15493,22.71487 3.10854,10.69297 15.33238,15.97061 25.25993,10.90595 z m -421.57225,-0.33178 c 3.41972,-1.40958 7.02417,-4.754 8.84765,-8.20935 2.29491,-4.34868 2.28956,-12.39389 -0.0111,-16.75457 -5.57688,-10.57021 -20.20811,-12.59907 -28.84479,-3.99979 -3.96273,3.94555 -5.68635,9.10525 -4.91692,14.71886 1.12799,8.22961 6.25245,13.50658 15.1481,15.59894 2.02729,0.47684 7.00905,-0.21311 9.77711,-1.35409 z M 370.26921,155.61869 c 6.68769,-2.78935 10.64993,-9.03686 10.67654,-16.83437 0.0369,-10.78981 -6.82975,-17.36054 -18.12079,-17.34006 -10.28824,0.0187 -17.21071,7.17939 -17.21071,17.80305 0,7.0719 3.85356,13.18589 10.15315,16.10878 3.72794,1.72969 10.6824,1.85563 14.50181,0.2626 z"
       id="path891"
       inkscape:connector-curvature="0"
       transform="scale(0.26458333)" />
    <path
       style="opacity:0.98999999;fill:#0d1d41;fill-opacity:0;fill-rule:evenodd;stroke:none;stroke-width:0.75326991;stroke-miterlimit:4;stroke-dasharray:none;stroke-opacity:1"
       d="m 360.66195,660.86911 c -2.08653,-1.04472 -4.17328,-3.80775 -10.15315,-13.44366 -4.13977,-6.67077 -7.99134,-12.67806 -8.55904,-13.34952 -0.68383,-0.8088 -2.23267,-1.22084 -4.58906,-1.22084 h -3.55687 l -8.87092,9.58909 c -12.27689,13.27081 -12.83001,13.72557 -16.69464,13.72557 -5.42977,0 -6.94056,-2.10334 -12.69494,-17.67402 -2.75164,-7.44564 -5.38742,-13.90524 -5.85727,-14.35465 -0.46985,-0.4494 -2.26779,-1.21704 -3.99543,-1.70584 l -3.14117,-0.88873 -11.5245,8.35679 c -14.61434,10.59733 -15.1313,10.86943 -18.64845,9.81567 -5.33341,-1.59792 -5.90492,-2.89323 -8.72145,-19.76702 -1.40462,-8.41503 -2.5599,-15.37818 -2.56728,-15.47367 -0.008,-0.0955 -1.59091,-0.97531 -3.51896,-1.95517 l -3.50553,-1.78157 -13.60442,6.27456 c -15.99559,7.37741 -17.97452,7.70571 -22.02606,3.65417 l -2.6306,-2.63059 0.55058,-16.22046 0.55057,-16.22045 -2.5453,-2.17678 c -1.39992,-1.19723 -3.08951,-2.19054 -3.75465,-2.20735 -0.66514,-0.0168 -7.60313,1.49425 -15.41776,3.3579 -8.46531,2.01884 -15.03165,3.21347 -16.24512,2.95551 -2.60607,-0.55399 -6.61227,-5.09056 -6.61227,-7.48766 0,-1.01389 1.55304,-8.45344 3.4512,-16.53235 l 3.45121,-14.68891 -2.41992,-2.75612 -2.41991,-2.75613 -11.74851,0.31697 c -20.74257,0.55963 -20.79175,0.55642 -22.9829,-1.50318 -1.07382,-1.00935 -2.32099,-3.06543 -2.7715,-4.56908 -0.77662,-2.59213 -0.4755,-3.48581 5.80661,-17.23353 l 6.62571,-14.49963 -1.84551,-3.4672 -1.84552,-3.4672 -15.38706,-2.48095 c -13.903343,-2.24174 -15.588547,-2.67401 -17.47662,-4.4829 -2.39889,-2.29828 -3.415525,-6.31455 -2.247374,-8.87836 0.4411,-0.96811 4.629496,-7.06374 9.307546,-13.54584 8.830678,-12.23615 8.985858,-12.61961 7.021188,-17.34954 -0.88523,-2.1312 -2.03648,-2.70807 -14.779535,-7.4057 -16.127912,-5.94543 -18.143087,-7.36034 -18.258529,-12.81978 -0.08053,-3.80844 0.02637,-3.93169 17.866222,-20.59822 l 5.906368,-5.51791 -0.49817,-3.87679 -0.49817,-3.87679 -12.709112,-7.80241 c -6.990011,-4.29133 -13.271158,-8.42346 -13.958104,-9.18253 -2.055975,-2.27182 -2.257063,-7.47 -0.380934,-9.84726 0.873921,-1.10735 7.173727,-5.46397 13.999568,-9.68135 6.825841,-4.2174 12.589142,-7.95685 12.807336,-8.3099 0.218194,-0.35304 0.567435,-2.25754 0.776092,-4.23222 l 0.379375,-3.59032 -10.993625,-10.10253 c -6.046494,-5.55641 -11.507952,-11.09714 -12.136575,-12.31277 -1.325267,-2.56278 -0.881916,-6.06276 1.092937,-8.62803 0.897968,-1.16644 5.98566,-3.46531 15.965459,-7.21398 l 14.647497,-5.50198 1.21428,-3.69126 c 0.66785,-2.0302 0.96911,-4.02971 0.66947,-4.44336 -12.683229,-17.50865 -18.053589,-25.60061 -18.053589,-27.2028 0,-2.6143 2.143112,-6.90361 3.926091,-7.85784 1.030945,-0.55174 29.173128,-5.76134 31.970708,-5.91832 0.35603,-0.02 3.21165,-5.99729 3.21165,-6.72254 0,-0.41585 -2.23006,-5.59051 -4.9557,-11.49926 -7.6733,-16.63454 -8.0231,-17.65561 -7.05421,-20.59138 0.45597,-1.3816 1.86587,-3.38443 3.13311,-4.45075 l 2.30408,-1.93875 16.09249,0.52543 c 15.26641,0.49846 16.15065,0.45195 17.22552,-0.90618 3.64078,-4.60024 3.64933,-3.41355 -0.14152,-19.63015 -3.75362,-16.05733 -3.81188,-17.82322 -0.691,-20.9441 3.08247,-3.08247 4.80702,-3.02011 20.81003,0.75255 16.27968,3.83788 15.02594,3.83211 19.74919,0.091 1.33993,-1.06132 1.38709,-1.99129 0.87139,-17.18417 l -0.5452,-16.06214 1.97355,-2.34542 c 1.08544,-1.28998 3.14706,-2.73272 4.58137,-3.20609 2.46743,-0.81432 3.37716,-0.51334 16.8974,5.59044 7.85926,3.54811 14.64144,6.4511 15.07152,6.4511 0.43008,0 2.09365,-0.66917 3.69683,-1.48705 3.33704,-1.70243 3.00904,-0.6604 5.68709,-18.06717 1.05007,-6.82518 2.3766,-13.456138 2.94785,-14.73547 1.29517,-2.900569 5.70386,-5.15407 8.85163,-4.524515 1.23045,0.24609 7.70622,4.399427 14.39059,9.229635 12.52188,9.04847 13.37675,9.41229 17.83847,7.59172 2.16896,-0.88503 2.74062,-2.01793 7.85454,-15.56608 5.69969,-15.100002 6.7478,-16.775467 11.0299,-17.631886 3.9455,-0.789101 6.31655,0.949968 16.86297,12.368314 9.26687,10.033014 10.63776,11.234913 12.81453,11.234913 4.78917,0 5.71357,-0.929064 13.59323,-13.661724 4.19294,-6.775338 8.28562,-12.917977 9.09483,-13.650309 0.80922,-0.732331 2.64543,-1.522046 4.08047,-1.754921 4.89806,-0.794844 6.59647,0.873256 15.40787,15.132818 8.09051,13.092924 8.12642,13.136462 11.22454,13.606697 1.70943,0.259459 3.57271,0.354665 4.14061,0.21157 0.56791,-0.143096 5.84737,-5.37784 11.73213,-11.632766 11.54738,-12.273741 13.07833,-13.241113 17.81987,-11.259971 1.36798,0.571578 3.01656,1.794951 3.66351,2.718604 0.64696,0.923654 3.48246,7.859582 6.30113,15.413172 l 5.12483,13.733799 3.69805,1.18259 3.69805,1.18259 10.21742,-7.38756 c 14.69749,-10.626802 15.85526,-11.355749 18.03124,-11.352633 2.58727,0.0037 6.67523,2.547136 7.69651,4.788589 0.44769,0.982584 1.88106,8.344394 3.18527,16.359594 l 2.37128,14.57307 3.48308,1.84209 3.48308,1.84209 13.81064,-6.2875 c 14.4439,-6.5758 17.16325,-7.22505 20.66146,-4.93293 3.57655,2.34344 3.92924,4.60324 3.28905,21.07379 l -0.58466,15.04171 2.74325,2.41604 c 1.50879,1.32882 3.08169,2.42647 3.49534,2.43921 0.41364,0.0127 7.14587,-1.49752 14.96049,-3.35615 7.81463,-1.85862 14.98048,-3.37931 15.92412,-3.37931 2.17802,0 5.88269,3.08821 7.03135,5.86131 0.75469,1.82198 0.38675,4.23777 -2.53474,16.64249 -1.87968,7.98113 -3.41759,15.00476 -3.41759,15.60807 0,0.60332 0.92506,2.30975 2.05569,3.79208 l 2.05569,2.69515 15.63015,-0.50227 c 13.26736,-0.42633 15.96753,-0.3278 17.86186,0.65179 2.52777,1.30717 4.5134,4.61893 4.5134,7.52774 0,1.07873 -2.86534,8.24651 -6.36743,15.9284 l -6.36743,13.96708 1.92886,3.29136 c 1.07288,1.83073 2.647,3.44894 3.54712,3.64646 0.89003,0.19531 7.83214,1.35407 15.42689,2.57503 11.42352,1.83648 14.11927,2.51173 15.60692,3.90931 2.30848,2.16869 3.45213,6.19199 2.48397,8.73844 -0.40166,1.05644 -4.61196,7.31147 -9.35623,13.90007 l -8.62596,11.97927 0.83377,3.31115 c 0.45856,1.82113 1.2192,3.63031 1.6903,4.02038 0.47111,0.39008 6.94844,2.96724 14.39409,5.72702 15.65216,5.80158 17.67401,7.25966 17.67401,12.74573 0,3.83663 0.11994,3.69275 -14.1016,16.91678 l -9.21305,8.56684 v 3.93467 3.93467 l 13.34952,8.1874 c 11.43271,7.01179 13.55597,8.60684 14.78738,11.10863 1.30602,2.65337 1.34051,3.201 0.37605,5.97197 -0.98807,2.83881 -2.01521,3.64299 -14.78739,11.57763 l -13.72556,8.52691 v 3.94884 3.94884 l 10.9703,10.10733 c 6.03367,5.55903 11.27947,10.67735 11.65733,11.37403 0.37786,0.69669 0.68702,2.66875 0.68702,4.38235 0,5.02267 -2.12723,6.47452 -18.2304,12.44237 l -14.09394,5.22323 -1.205,3.5988 c -1.40545,4.1974 -2.26624,2.43181 8.3289,17.08355 8.99257,12.43559 9.72521,13.97277 8.46009,17.75062 -1.57796,4.71205 -3.32633,5.43034 -19.41918,7.97815 -8.03344,1.27184 -15.05403,2.66469 -15.60132,3.09521 -0.54729,0.43053 -1.62285,2.01333 -2.39014,3.51732 l -1.39506,2.73456 6.32477,13.86164 c 3.47862,7.62391 6.33099,14.80916 6.33858,15.96723 0.0197,2.99942 -1.91216,6.33398 -4.42123,7.63147 -1.81793,0.94009 -4.53961,1.01578 -17.47326,0.48595 l -15.31992,-0.62757 -2.44428,2.66042 c -1.34435,1.46323 -2.44428,3.23025 -2.44428,3.9267 0,0.69646 1.54168,7.76647 3.42596,15.71114 l 3.42594,14.44486 -1.35771,2.77767 c -0.78287,1.60164 -2.48033,3.37875 -4.00922,4.19734 l -2.65151,1.41966 -14.84509,-3.4879 c -8.1648,-1.91833 -15.2916,-3.48789 -15.83731,-3.48789 -0.54571,0 -2.20823,1.09992 -3.69448,2.44428 l -2.70226,2.44427 0.60639,15.04171 c 0.67851,16.83081 0.3086,18.97233 -3.62881,21.00845 -1.25299,0.64794 -3.27224,1.17808 -4.48721,1.17808 -1.21498,0 -8.42361,-2.84584 -16.01917,-6.32409 l -13.81011,-6.32409 -3.38439,1.89772 -3.38438,1.8977 -2.45474,15.10354 c -1.38142,8.49965 -2.969,15.88843 -3.6309,16.89862 -1.5245,2.32667 -5.96445,4.17842 -8.49883,3.54456 -1.59298,-0.39842 -11.04392,-6.86818 -24.91245,-17.05416 -1.75705,-1.29049 -2.1618,-1.31015 -5.64986,-0.27431 l -3.75722,1.11578 -5.23519,14.12557 c -6.04733,16.31689 -7.39336,18.26204 -12.63715,18.26204 -4.18701,0 -4.62235,-0.34881 -16.32912,-13.08319 l -9.40107,-10.22629 -3.51868,-0.002 c -2.08559,-0.002 -3.96601,0.44474 -4.617,1.09573 -0.60408,0.60407 -4.57413,6.73572 -8.82234,13.6259 -6.31951,10.24962 -8.17653,12.71666 -10.21253,13.56735 -3.19827,1.33633 -3.87321,1.30973 -7.04335,-0.27754 z m 19.92428,-79.90748 c 11.05369,-1.00262 21.34127,-2.68238 32.71572,-5.34185 15.42809,-3.60724 39.55744,-12.08771 40.7612,-14.32586 0.30027,-0.5583 2.58861,-10.42179 5.0852,-21.91887 2.4966,-11.49708 5.03055,-21.85383 5.631,-23.01499 1.63799,-3.16752 6.0234,-6.67867 9.51635,-7.61923 3.68548,-0.99239 4.25951,-0.91039 27.17867,3.88293 l 17.85242,3.73366 4.52434,-4.83654 c 10.08922,-10.78541 20.78796,-25.4676 29.13889,-39.98814 14.1721,-24.64237 23.75029,-54.099 27.38959,-84.23358 1.21643,-10.07248 1.2895,-43.64576 0.0976,-44.83768 -0.43918,-0.43918 -10.37634,-5.17351 -22.08258,-10.52075 -11.70624,-5.34723 -21.9445,-10.30882 -22.7517,-11.02575 -2.30767,-2.04963 -4.22896,-6.98756 -4.24701,-10.91527 -0.0185,-4.03033 -0.0182,-4.03108 12.88379,-33.37475 l 8.98012,-20.42395 -3.13492,-5.14696 c -30.46354,-50.0155 -78.85744,-85.0232 -136.65941,-98.85814 l -9.23754,-2.21101 -15.95732,15.16949 c -8.77653,8.34323 -16.97265,15.79464 -18.21359,16.55871 -3.08206,1.89767 -10.02975,1.87205 -13.79903,-0.0509 -1.55862,-0.79515 -9.48538,-8.24713 -17.61502,-16.55997 l -14.78117,-15.11424 -9.61811,2.34101 c -38.25933,9.31221 -72.26055,27.80925 -100.03182,54.41843 -13.87977,13.29896 -27.09152,29.6001 -36.20826,44.67508 l -3.79035,6.26752 1.75218,3.88563 c 17.42787,38.648 19.44657,43.56874 19.44657,47.40251 0,4.06872 -1.90941,8.83786 -4.46286,11.14694 -0.76983,0.69615 -3.79643,2.45023 -6.72578,3.89796 -8.3132,4.10849 -34.42059,15.68779 -35.46752,15.73077 -0.56451,0.0232 -0.95127,1.11529 -0.96805,2.73356 -0.0153,1.48223 -0.33789,7.09467 -0.71672,12.47208 -0.79697,11.31321 0.0518,26.66967 2.28634,41.3647 4.72958,31.10347 16.06198,60.61895 33.35194,86.86589 6.19965,9.41132 19.46028,26.44955 23.50056,30.19523 l 2.14871,1.99205 18.42609,-4.03557 c 10.13435,-2.21956 19.70611,-4.04669 21.27058,-4.06026 5.62805,-0.0489 10.72216,3.18677 13.47708,8.56025 1.25757,2.45287 9.67389,37.16564 10.50052,43.30896 0.21286,1.58194 1.32679,2.33592 7.02177,4.75279 32.56533,13.82032 69.25995,19.9853 101.53155,17.05813 z M 498.9792,565.18474 c 12.60429,-3.61486 17.09976,-20.32267 8.01255,-29.7793 -8.22633,-8.56075 -24.06903,-6.39259 -29.09092,3.98124 -2.31183,4.7756 -2.36713,12.08365 -0.12394,16.37964 4.08722,7.82756 12.97818,11.77707 21.20231,9.41842 z m -258.18883,-2.14048 c 6.45297,-3.31808 9.6596,-8.75398 9.64013,-16.34203 -0.0113,-4.4216 -0.35962,-5.89411 -2.09415,-8.85385 -4.69298,-8.00796 -15.78475,-11.01686 -24.37435,-6.61209 -7.19913,3.69175 -10.75632,12.54367 -8.41484,20.94001 1.2878,4.61796 7.3251,10.88977 11.63954,12.09165 4.05832,1.13055 10.07829,0.58904 13.60367,-1.22369 z M 581.79741,315.46055 c 3.63211,-1.85296 7.76461,-6.69889 8.87597,-10.40829 3.87203,-12.92365 -5.66503,-24.58685 -18.98097,-23.21253 -11.79202,1.21705 -18.48724,11.25213 -15.15493,22.71487 3.10854,10.69297 15.33238,15.97061 25.25993,10.90595 z m -421.57225,-0.33178 c 3.41972,-1.40958 7.02417,-4.754 8.84765,-8.20935 2.29491,-4.34868 2.28956,-12.39389 -0.0111,-16.75457 -5.57688,-10.57021 -20.20811,-12.59907 -28.84479,-3.99979 -3.96273,3.94555 -5.68635,9.10525 -4.91692,14.71886 1.12799,8.22961 6.25245,13.50658 15.1481,15.59894 2.02729,0.47684 7.00905,-0.21311 9.77711,-1.35409 z M 370.26921,155.61869 c 6.68769,-2.78935 10.64993,-9.03686 10.67654,-16.83437 0.0369,-10.78981 -6.82975,-17.36054 -18.12079,-17.34006 -10.28824,0.0187 -17.21071,7.17939 -17.21071,17.80305 0,7.0719 3.85356,13.18589 10.15315,16.10878 3.72794,1.72969 10.6824,1.85563 14.50181,0.2626 z"
       id="path893"
       inkscape:connector-curvature="0"
       transform="scale(0.26458333)" />
    <path
       style="opacity:0.98999999;fill:#0d1d41;fill-opacity:0;fill-rule:evenodd;stroke:none;stroke-width:0.28425279;stroke-miterlimit:4;stroke-dasharray:none;stroke-opacity:1"
       d="m 360.66195,660.86911 c -2.08653,-1.04472 -4.17328,-3.80775 -10.15315,-13.44366 -4.13977,-6.67077 -7.99134,-12.67806 -8.55904,-13.34952 -0.68383,-0.8088 -2.23267,-1.22084 -4.58906,-1.22084 h -3.55687 l -8.87092,9.58909 c -12.27689,13.27081 -12.83001,13.72557 -16.69464,13.72557 -5.42977,0 -6.94056,-2.10334 -12.69494,-17.67402 -2.75164,-7.44564 -5.38742,-13.90524 -5.85727,-14.35465 -0.46985,-0.4494 -2.26779,-1.21704 -3.99543,-1.70584 l -3.14117,-0.88873 -11.5245,8.35679 c -14.61434,10.59733 -15.1313,10.86943 -18.64845,9.81567 -5.33341,-1.59792 -5.90492,-2.89323 -8.72145,-19.76702 -1.40462,-8.41503 -2.5599,-15.37818 -2.56728,-15.47367 -0.008,-0.0955 -1.59091,-0.97531 -3.51896,-1.95517 l -3.50553,-1.78157 -13.60442,6.27456 c -15.99559,7.37741 -17.97452,7.70571 -22.02606,3.65417 l -2.6306,-2.63059 0.55058,-16.22046 0.55057,-16.22045 -2.5453,-2.17678 c -1.39992,-1.19723 -3.08951,-2.19054 -3.75465,-2.20735 -0.66514,-0.0168 -7.60313,1.49425 -15.41776,3.3579 -8.46531,2.01884 -15.03165,3.21347 -16.24512,2.95551 -2.60607,-0.55399 -6.61227,-5.09056 -6.61227,-7.48766 0,-1.01389 1.55304,-8.45344 3.4512,-16.53235 l 3.45121,-14.68891 -2.41992,-2.75612 -2.41991,-2.75613 -11.74851,0.31697 c -20.74257,0.55963 -20.79175,0.55642 -22.9829,-1.50318 -1.07382,-1.00935 -2.32099,-3.06543 -2.7715,-4.56908 -0.77662,-2.59213 -0.4755,-3.48581 5.80661,-17.23353 l 6.62571,-14.49963 -1.84551,-3.4672 -1.84552,-3.4672 -15.38706,-2.48095 c -13.903343,-2.24174 -15.588547,-2.67401 -17.47662,-4.4829 -2.39889,-2.29828 -3.415525,-6.31455 -2.247374,-8.87836 0.4411,-0.96811 4.629496,-7.06374 9.307546,-13.54584 8.830678,-12.23615 8.985858,-12.61961 7.021188,-17.34954 -0.88523,-2.1312 -2.03648,-2.70807 -14.779535,-7.4057 -16.127912,-5.94543 -18.143087,-7.36034 -18.258529,-12.81978 -0.08053,-3.80844 0.02637,-3.93169 17.866222,-20.59822 l 5.906368,-5.51791 -0.49817,-3.87679 -0.49817,-3.87679 -12.709112,-7.80241 c -6.990011,-4.29133 -13.271158,-8.42346 -13.958104,-9.18253 -2.055975,-2.27182 -2.257063,-7.47 -0.380934,-9.84726 0.873921,-1.10735 7.173727,-5.46397 13.999568,-9.68135 6.825841,-4.2174 12.589142,-7.95685 12.807336,-8.3099 0.218194,-0.35304 0.567435,-2.25754 0.776092,-4.23222 l 0.379375,-3.59032 -10.993625,-10.10253 c -6.046494,-5.55641 -11.507952,-11.09714 -12.136575,-12.31277 -1.325267,-2.56278 -0.881916,-6.06276 1.092937,-8.62803 0.897968,-1.16644 5.98566,-3.46531 15.965459,-7.21398 l 14.647497,-5.50198 1.21428,-3.69126 c 0.66785,-2.0302 0.96911,-4.02971 0.66947,-4.44336 -12.683229,-17.50865 -18.053589,-25.60061 -18.053589,-27.2028 0,-2.6143 2.143112,-6.90361 3.926091,-7.85784 1.030945,-0.55174 29.173128,-5.76134 31.970708,-5.91832 0.35603,-0.02 3.21165,-5.99729 3.21165,-6.72254 0,-0.41585 -2.23006,-5.59051 -4.9557,-11.49926 -7.6733,-16.63454 -8.0231,-17.65561 -7.05421,-20.59138 0.45597,-1.3816 1.86587,-3.38443 3.13311,-4.45075 l 2.30408,-1.93875 16.09249,0.52543 c 15.26641,0.49846 16.15065,0.45195 17.22552,-0.90618 3.64078,-4.60024 3.64933,-3.41355 -0.14152,-19.63015 -3.75362,-16.05733 -3.81188,-17.82322 -0.691,-20.9441 3.08247,-3.08247 4.80702,-3.02011 20.81003,0.75255 16.27968,3.83788 15.02594,3.83211 19.74919,0.091 1.33993,-1.06132 1.38709,-1.99129 0.87139,-17.18417 l -0.5452,-16.06214 1.97355,-2.34542 c 1.08544,-1.28998 3.14706,-2.73272 4.58137,-3.20609 2.46743,-0.81432 3.37716,-0.51334 16.8974,5.59044 7.85926,3.54811 14.64144,6.4511 15.07152,6.4511 0.43008,0 2.09365,-0.66917 3.69683,-1.48705 3.33704,-1.70243 3.00904,-0.6604 5.68709,-18.06717 1.05007,-6.82518 2.3766,-13.456138 2.94785,-14.73547 1.29517,-2.900569 5.70386,-5.15407 8.85163,-4.524515 1.23045,0.24609 7.70622,4.399427 14.39059,9.229635 12.52188,9.04847 13.37675,9.41229 17.83847,7.59172 2.16896,-0.88503 2.74062,-2.01793 7.85454,-15.56608 5.69969,-15.100002 6.7478,-16.775467 11.0299,-17.631886 3.9455,-0.789101 6.31655,0.949968 16.86297,12.368314 9.26687,10.033014 10.63776,11.234913 12.81453,11.234913 4.78917,0 5.71357,-0.929064 13.59323,-13.661724 4.19294,-6.775338 8.28562,-12.917977 9.09483,-13.650309 0.80922,-0.732331 2.64543,-1.522046 4.08047,-1.754921 4.89806,-0.794844 6.59647,0.873256 15.40787,15.132818 8.09051,13.092924 8.12642,13.136462 11.22454,13.606697 1.70943,0.259459 3.57271,0.354665 4.14061,0.21157 0.56791,-0.143096 5.84737,-5.37784 11.73213,-11.632766 11.54738,-12.273741 13.07833,-13.241113 17.81987,-11.259971 1.36798,0.571578 3.01656,1.794951 3.66351,2.718604 0.64696,0.923654 3.48246,7.859582 6.30113,15.413172 l 5.12483,13.733799 3.69805,1.18259 3.69805,1.18259 10.21742,-7.38756 c 14.69749,-10.626802 15.85526,-11.355749 18.03124,-11.352633 2.58727,0.0037 6.67523,2.547136 7.69651,4.788589 0.44769,0.982584 1.88106,8.344394 3.18527,16.359594 l 2.37128,14.57307 3.48308,1.84209 3.48308,1.84209 13.81064,-6.2875 c 14.4439,-6.5758 17.16325,-7.22505 20.66146,-4.93293 3.57655,2.34344 3.92924,4.60324 3.28905,21.07379 l -0.58466,15.04171 2.74325,2.41604 c 1.50879,1.32882 3.08169,2.42647 3.49534,2.43921 0.41364,0.0127 7.14587,-1.49752 14.96049,-3.35615 7.81463,-1.85862 14.98048,-3.37931 15.92412,-3.37931 2.17802,0 5.88269,3.08821 7.03135,5.86131 0.75469,1.82198 0.38675,4.23777 -2.53474,16.64249 -1.87968,7.98113 -3.41759,15.00476 -3.41759,15.60807 0,0.60332 0.92506,2.30975 2.05569,3.79208 l 2.05569,2.69515 15.63015,-0.50227 c 13.26736,-0.42633 15.96753,-0.3278 17.86186,0.65179 2.52777,1.30717 4.5134,4.61893 4.5134,7.52774 0,1.07873 -2.86534,8.24651 -6.36743,15.9284 l -6.36743,13.96708 1.92886,3.29136 c 1.07288,1.83073 2.647,3.44894 3.54712,3.64646 0.89003,0.19531 7.83214,1.35407 15.42689,2.57503 11.42352,1.83648 14.11927,2.51173 15.60692,3.90931 2.30848,2.16869 3.45213,6.19199 2.48397,8.73844 -0.40166,1.05644 -4.61196,7.31147 -9.35623,13.90007 l -8.62596,11.97927 0.83377,3.31115 c 0.45856,1.82113 1.2192,3.63031 1.6903,4.02038 0.47111,0.39008 6.94844,2.96724 14.39409,5.72702 15.65216,5.80158 17.67401,7.25966 17.67401,12.74573 0,3.83663 0.11994,3.69275 -14.1016,16.91678 l -9.21305,8.56684 v 3.93467 3.93467 l 13.34952,8.1874 c 11.43271,7.01179 13.55597,8.60684 14.78738,11.10863 1.30602,2.65337 1.34051,3.201 0.37605,5.97197 -0.98807,2.83881 -2.01521,3.64299 -14.78739,11.57763 l -13.72556,8.52691 v 3.94884 3.94884 l 10.9703,10.10733 c 6.03367,5.55903 11.27947,10.67735 11.65733,11.37403 0.37786,0.69669 0.68702,2.66875 0.68702,4.38235 0,5.02267 -2.12723,6.47452 -18.2304,12.44237 l -14.09394,5.22323 -1.205,3.5988 c -1.40545,4.1974 -2.26624,2.43181 8.3289,17.08355 8.99257,12.43559 9.72521,13.97277 8.46009,17.75062 -1.57796,4.71205 -3.32633,5.43034 -19.41918,7.97815 -8.03344,1.27184 -15.05403,2.66469 -15.60132,3.09521 -0.54729,0.43053 -1.62285,2.01333 -2.39014,3.51732 l -1.39506,2.73456 6.32477,13.86164 c 3.47862,7.62391 6.33099,14.80916 6.33858,15.96723 0.0197,2.99942 -1.91216,6.33398 -4.42123,7.63147 -1.81793,0.94009 -4.53961,1.01578 -17.47326,0.48595 l -15.31992,-0.62757 -2.44428,2.66042 c -1.34435,1.46323 -2.44428,3.23025 -2.44428,3.9267 0,0.69646 1.54168,7.76647 3.42596,15.71114 l 3.42594,14.44486 -1.35771,2.77767 c -0.78287,1.60164 -2.48033,3.37875 -4.00922,4.19734 l -2.65151,1.41966 -14.84509,-3.4879 c -8.1648,-1.91833 -15.2916,-3.48789 -15.83731,-3.48789 -0.54571,0 -2.20823,1.09992 -3.69448,2.44428 l -2.70226,2.44427 0.60639,15.04171 c 0.67851,16.83081 0.3086,18.97233 -3.62881,21.00845 -1.25299,0.64794 -3.27224,1.17808 -4.48721,1.17808 -1.21498,0 -8.42361,-2.84584 -16.01917,-6.32409 l -13.81011,-6.32409 -3.38439,1.89772 -3.38438,1.8977 -2.45474,15.10354 c -1.38142,8.49965 -2.969,15.88843 -3.6309,16.89862 -1.5245,2.32667 -5.96445,4.17842 -8.49883,3.54456 -1.59298,-0.39842 -11.04392,-6.86818 -24.91245,-17.05416 -1.75705,-1.29049 -2.1618,-1.31015 -5.64986,-0.27431 l -3.75722,1.11578 -5.23519,14.12557 c -6.04733,16.31689 -7.39336,18.26204 -12.63715,18.26204 -4.18701,0 -4.62235,-0.34881 -16.32912,-13.08319 l -9.40107,-10.22629 -3.51868,-0.002 c -2.08559,-0.002 -3.96601,0.44474 -4.617,1.09573 -0.60408,0.60407 -4.57413,6.73572 -8.82234,13.6259 -6.31951,10.24962 -8.17653,12.71666 -10.21253,13.56735 -3.19827,1.33633 -3.87321,1.30973 -7.04335,-0.27754 z m 19.92428,-79.90748 c 11.05369,-1.00262 21.34127,-2.68238 32.71572,-5.34185 15.42809,-3.60724 39.55744,-12.08771 40.7612,-14.32586 0.30027,-0.5583 2.58861,-10.42179 5.0852,-21.91887 2.4966,-11.49708 5.03055,-21.85383 5.631,-23.01499 1.63799,-3.16752 6.0234,-6.67867 9.51635,-7.61923 3.68548,-0.99239 4.25951,-0.91039 27.17867,3.88293 l 17.85242,3.73366 4.52434,-4.83654 c 10.08922,-10.78541 20.78796,-25.4676 29.13889,-39.98814 14.1721,-24.64237 23.75029,-54.099 27.38959,-84.23358 1.21643,-10.07248 1.2895,-43.64576 0.0976,-44.83768 -0.43918,-0.43918 -10.37634,-5.17351 -22.08258,-10.52075 -11.70624,-5.34723 -21.9445,-10.30882 -22.7517,-11.02575 -2.30767,-2.04963 -4.22896,-6.98756 -4.24701,-10.91527 -0.0185,-4.03033 -0.0182,-4.03108 12.88379,-33.37475 l 8.98012,-20.42395 -3.13492,-5.14696 c -30.46354,-50.0155 -78.85744,-85.0232 -136.65941,-98.85814 l -9.23754,-2.21101 -15.95732,15.16949 c -8.77653,8.34323 -16.97265,15.79464 -18.21359,16.55871 -3.08206,1.89767 -10.02975,1.87205 -13.79903,-0.0509 -1.55862,-0.79515 -9.48538,-8.24713 -17.61502,-16.55997 l -14.78117,-15.11424 -9.61811,2.34101 c -38.25933,9.31221 -72.26055,27.80925 -100.03182,54.41843 -13.87977,13.29896 -27.09152,29.6001 -36.20826,44.67508 l -3.79035,6.26752 1.75218,3.88563 c 17.42787,38.648 19.44657,43.56874 19.44657,47.40251 0,4.06872 -1.90941,8.83786 -4.46286,11.14694 -0.76983,0.69615 -3.79643,2.45023 -6.72578,3.89796 -8.3132,4.10849 -34.42059,15.68779 -35.46752,15.73077 -0.56451,0.0232 -0.95127,1.11529 -0.96805,2.73356 -0.0153,1.48223 -0.33789,7.09467 -0.71672,12.47208 -0.79697,11.31321 0.0518,26.66967 2.28634,41.3647 4.72958,31.10347 16.06198,60.61895 33.35194,86.86589 6.19965,9.41132 19.46028,26.44955 23.50056,30.19523 l 2.14871,1.99205 18.42609,-4.03557 c 10.13435,-2.21956 19.70611,-4.04669 21.27058,-4.06026 5.62805,-0.0489 10.72216,3.18677 13.47708,8.56025 1.25757,2.45287 9.67389,37.16564 10.50052,43.30896 0.21286,1.58194 1.32679,2.33592 7.02177,4.75279 32.56533,13.82032 69.25995,19.9853 101.53155,17.05813 z m 122.7983,-17.79898 c 9.48407,-5.86355 11.29025,-19.76185 3.60722,-27.75721 -8.22633,-8.56075 -24.06903,-6.39259 -29.09092,3.98124 -2.31183,4.7756 -2.36713,12.08365 -0.12394,16.37964 4.97598,9.52965 16.6863,12.91197 25.60764,7.39633 z m -262.59416,-0.11839 c 6.45297,-3.31808 9.6596,-8.75398 9.64013,-16.34203 -0.0113,-4.4216 -0.35962,-5.89411 -2.09415,-8.85385 -4.69298,-8.00796 -15.78475,-11.01686 -24.37435,-6.61209 -7.19913,3.69175 -10.75632,12.54367 -8.41484,20.94001 1.2878,4.61796 7.3251,10.88977 11.63954,12.09165 4.05832,1.13055 10.07829,0.58904 13.60367,-1.22369 z M 581.79741,315.46055 c 3.63211,-1.85296 7.76461,-6.69889 8.87597,-10.40829 3.87203,-12.92365 -5.66503,-24.58685 -18.98097,-23.21253 -11.79202,1.21705 -18.48724,11.25213 -15.15493,22.71487 3.10854,10.69297 15.33238,15.97061 25.25993,10.90595 z m -421.57225,-0.33178 c 3.41972,-1.40958 7.02417,-4.754 8.84765,-8.20935 2.29491,-4.34868 2.28956,-12.39389 -0.0111,-16.75457 -5.57688,-10.57021 -20.20811,-12.59907 -28.84479,-3.99979 -3.96273,3.94555 -5.68635,9.10525 -4.91692,14.71886 1.12799,8.22961 6.25245,13.50658 15.1481,15.59894 2.02729,0.47684 7.00905,-0.21311 9.77711,-1.35409 z M 370.26921,155.61869 c 6.68769,-2.78935 10.64993,-9.03686 10.67654,-16.83437 0.0369,-10.78981 -6.82975,-17.36054 -18.12079,-17.34006 -10.28824,0.0187 -17.21071,7.17939 -17.21071,17.80305 0,7.0719 3.85356,13.18589 10.15315,16.10878 3.72794,1.72969 10.6824,1.85563 14.50181,0.2626 z"
       id="path897"
       inkscape:connector-curvature="0"
       transform="scale(0.26458333)" />
    <path
       style="opacity:0.98999999;fill:#0d1d41;fill-opacity:0;fill-rule:evenodd;stroke:none;stroke-width:0.28425279;stroke-miterlimit:4;stroke-dasharray:none;stroke-opacity:1"
       d="m 345.23821,580.16719 c -16.54143,-1.70295 -35.38736,-5.80587 -50.01369,-10.8884 -10.36889,-3.60311 -20.46917,-7.76338 -21.53121,-8.86864 -0.46688,-0.48587 -1.93204,-5.95998 -3.25592,-12.16468 -6.78101,-31.781 -8.54749,-36.59949 -14.55525,-39.70309 -5.07424,-2.62135 -7.97056,-2.44324 -27.21719,1.67359 -9.92753,2.12349 -18.58891,4.02442 -19.24752,4.2243 -0.81946,0.2487 -3.41473,-2.25035 -8.22157,-7.91676 -32.60805,-38.43903 -49.55471,-79.86562 -53.38685,-130.50563 -0.78639,-10.39189 0.13171,-33.88992 1.37136,-35.09869 0.28358,-0.27651 6.60749,-3.20762 14.05313,-6.51359 27.48879,-12.20539 28.45326,-12.77183 31.32246,-18.39593 1.24392,-2.43828 1.48261,-4.01253 1.21148,-7.99031 -0.33814,-4.96116 -2.09894,-9.27948 -18.46634,-45.28834 l -2.26657,-4.98655 4.86527,-7.7989 c 24.75027,-39.67416 62.4751,-71.06723 105.5476,-87.83243 10.47826,-4.07847 16.60753,-5.99712 29.33134,-9.18159 l 8.64899,-2.16464 14.66566,14.96456 c 9.10075,9.28621 15.86717,15.56485 17.83207,16.54655 3.95763,1.97731 10.81295,2.08992 14.26553,0.23432 1.31462,-0.70654 8.08339,-6.7153 15.04171,-13.35279 6.95832,-6.63749 14.20617,-13.4852 16.10632,-15.21713 l 3.45483,-3.14898 9.05883,2.21209 c 31.46848,7.68432 59.03062,20.96386 84.43494,40.68108 9.19613,7.13745 24.71866,22.274 32.57613,31.7661 6.03244,7.2874 16.58798,22.22045 19.82283,28.04361 l 1.63319,2.93995 -10.54175,24.06674 c -11.52987,26.3226 -12.37659,29.28885 -10.07835,35.3067 0.70483,1.84559 2.36367,4.30575 3.6863,5.46704 1.32263,1.16128 11.92837,6.45205 23.5683,11.75727 l 21.16353,9.64585 0.55127,10.27627 c 3.04243,56.71341 -18.23664,115.55681 -56.9717,157.54487 l -4.7274,5.12441 -18.05005,-3.87896 c -20.24497,-4.35065 -25.67991,-4.80035 -30.14548,-2.49429 -6.18373,3.19333 -6.97572,5.10454 -12.34889,29.79997 l -4.86548,22.36204 -5.65142,2.36631 c -15.48011,6.48172 -36.57066,12.31351 -54.15799,14.97535 -11.71316,1.77278 -37.6674,2.52786 -48.51245,1.41135 z"
       id="path899"
       inkscape:connector-curvature="0"
       transform="scale(0.26458333)" />
    <path
       style="opacity:0.98999999;fill:#0d1d41;fill-opacity:0;fill-rule:evenodd;stroke:none;stroke-width:0.28425279;stroke-miterlimit:4;stroke-dasharray:none;stroke-opacity:1"
       d="m 345.23821,580.16719 c -16.54143,-1.70295 -35.38736,-5.80587 -50.01369,-10.8884 -10.36889,-3.60311 -20.46917,-7.76338 -21.53121,-8.86864 -0.46688,-0.48587 -1.93204,-5.95998 -3.25592,-12.16468 -6.78101,-31.781 -8.54749,-36.59949 -14.55525,-39.70309 -5.07424,-2.62135 -7.97056,-2.44324 -27.21719,1.67359 -9.92753,2.12349 -18.58891,4.02442 -19.24752,4.2243 -0.81946,0.2487 -3.41473,-2.25035 -8.22157,-7.91676 -32.60805,-38.43903 -49.55471,-79.86562 -53.38685,-130.50563 -0.78639,-10.39189 0.13171,-33.88992 1.37136,-35.09869 0.28358,-0.27651 6.60749,-3.20762 14.05313,-6.51359 27.48879,-12.20539 28.45326,-12.77183 31.32246,-18.39593 1.24392,-2.43828 1.48261,-4.01253 1.21148,-7.99031 -0.33814,-4.96116 -2.09894,-9.27948 -18.46634,-45.28834 l -2.26657,-4.98655 4.86527,-7.7989 c 24.75027,-39.67416 62.4751,-71.06723 105.5476,-87.83243 10.47826,-4.07847 16.60753,-5.99712 29.33134,-9.18159 l 8.64899,-2.16464 14.66566,14.96456 c 9.10075,9.28621 15.86717,15.56485 17.83207,16.54655 3.95763,1.97731 10.81295,2.08992 14.26553,0.23432 1.31462,-0.70654 8.08339,-6.7153 15.04171,-13.35279 6.95832,-6.63749 14.20617,-13.4852 16.10632,-15.21713 l 3.45483,-3.14898 9.05883,2.21209 c 31.46848,7.68432 59.03062,20.96386 84.43494,40.68108 9.19613,7.13745 24.71866,22.274 32.57613,31.7661 6.03244,7.2874 16.58798,22.22045 19.82283,28.04361 l 1.63319,2.93995 -10.54175,24.06674 c -11.52987,26.3226 -12.37659,29.28885 -10.07835,35.3067 0.70483,1.84559 2.36367,4.30575 3.6863,5.46704 1.32263,1.16128 11.92837,6.45205 23.5683,11.75727 l 21.16353,9.64585 0.55127,10.27627 c 3.04243,56.71341 -18.23664,115.55681 -56.9717,157.54487 l -4.7274,5.12441 -18.05005,-3.87896 c -20.24497,-4.35065 -25.67991,-4.80035 -30.14548,-2.49429 -6.18373,3.19333 -6.97572,5.10454 -12.34889,29.79997 l -4.86548,22.36204 -5.65142,2.36631 c -15.48011,6.48172 -36.57066,12.31351 -54.15799,14.97535 -11.71316,1.77278 -37.6674,2.52786 -48.51245,1.41135 z"
       id="path901"
       inkscape:connector-curvature="0"
       transform="scale(0.26458333)" />
    <path
       style="opacity:0.98999999;fill:#0d1d41;fill-opacity:0;fill-rule:evenodd;stroke:none;stroke-width:0.28425279;stroke-miterlimit:4;stroke-dasharray:none;stroke-opacity:1"
       d="m 360.66195,660.86911 c -2.08653,-1.04472 -4.17328,-3.80775 -10.15315,-13.44366 -4.13977,-6.67077 -7.99134,-12.67806 -8.55904,-13.34952 -0.68383,-0.8088 -2.23267,-1.22084 -4.58906,-1.22084 h -3.55687 l -8.87092,9.58909 c -12.27689,13.27081 -12.83001,13.72557 -16.69464,13.72557 -5.42977,0 -6.94056,-2.10334 -12.69494,-17.67402 -2.75164,-7.44564 -5.38742,-13.90524 -5.85727,-14.35465 -0.46985,-0.4494 -2.26779,-1.21704 -3.99543,-1.70584 l -3.14117,-0.88873 -11.5245,8.35679 c -14.61434,10.59733 -15.1313,10.86943 -18.64845,9.81567 -5.33341,-1.59792 -5.90492,-2.89323 -8.72145,-19.76702 -1.40462,-8.41503 -2.5599,-15.37818 -2.56728,-15.47367 -0.008,-0.0955 -1.59091,-0.97531 -3.51896,-1.95517 l -3.50553,-1.78157 -13.60442,6.27456 c -15.99559,7.37741 -17.97452,7.70571 -22.02606,3.65417 l -2.6306,-2.63059 0.55058,-16.22046 0.55057,-16.22045 -2.5453,-2.17678 c -1.39992,-1.19723 -3.08951,-2.19054 -3.75465,-2.20735 -0.66514,-0.0168 -7.60313,1.49425 -15.41776,3.3579 -8.46531,2.01884 -15.03165,3.21347 -16.24512,2.95551 -2.60607,-0.55399 -6.61227,-5.09056 -6.61227,-7.48766 0,-1.01389 1.55304,-8.45344 3.4512,-16.53235 l 3.45121,-14.68891 -2.41992,-2.75612 -2.41991,-2.75613 -11.74851,0.31697 c -20.74257,0.55963 -20.79175,0.55642 -22.9829,-1.50318 -1.07382,-1.00935 -2.32099,-3.06543 -2.7715,-4.56908 -0.77662,-2.59213 -0.4755,-3.48581 5.80661,-17.23353 l 6.62571,-14.49963 -1.84551,-3.4672 -1.84552,-3.4672 -15.38706,-2.48095 c -13.903343,-2.24174 -15.588547,-2.67401 -17.47662,-4.4829 -2.39889,-2.29828 -3.415525,-6.31455 -2.247374,-8.87836 0.4411,-0.96811 4.629496,-7.06374 9.307546,-13.54584 8.830678,-12.23615 8.985858,-12.61961 7.021188,-17.34954 -0.88523,-2.1312 -2.03648,-2.70807 -14.779535,-7.4057 -16.127912,-5.94543 -18.143087,-7.36034 -18.258529,-12.81978 -0.08053,-3.80844 0.02637,-3.93169 17.866222,-20.59822 l 5.906368,-5.51791 -0.49817,-3.87679 -0.49817,-3.87679 -12.709112,-7.80241 c -6.990011,-4.29133 -13.271158,-8.42346 -13.958104,-9.18253 -2.055975,-2.27182 -2.257063,-7.47 -0.380934,-9.84726 0.873921,-1.10735 7.173727,-5.46397 13.999568,-9.68135 6.825841,-4.2174 12.589142,-7.95685 12.807336,-8.3099 0.218194,-0.35304 0.567435,-2.25754 0.776092,-4.23222 l 0.379375,-3.59032 -10.993625,-10.10253 c -6.046494,-5.55641 -11.507952,-11.09714 -12.136575,-12.31277 -1.325267,-2.56278 -0.881916,-6.06276 1.092937,-8.62803 0.897968,-1.16644 5.98566,-3.46531 15.965459,-7.21398 l 14.647497,-5.50198 1.21428,-3.69126 c 0.66785,-2.0302 0.96911,-4.02971 0.66947,-4.44336 -12.683229,-17.50865 -18.053589,-25.60061 -18.053589,-27.2028 0,-2.6143 2.143112,-6.90361 3.926091,-7.85784 1.030945,-0.55174 29.173128,-5.76134 31.970708,-5.91832 0.35603,-0.02 3.21165,-5.99729 3.21165,-6.72254 0,-0.41585 -2.23006,-5.59051 -4.9557,-11.49926 -7.6733,-16.63454 -8.0231,-17.65561 -7.05421,-20.59138 0.45597,-1.3816 1.86587,-3.38443 3.13311,-4.45075 l 2.30408,-1.93875 16.09249,0.52543 c 15.26641,0.49846 16.15065,0.45195 17.22552,-0.90618 3.64078,-4.60024 3.64933,-3.41355 -0.14152,-19.63015 -3.75362,-16.05733 -3.81188,-17.82322 -0.691,-20.9441 3.08247,-3.08247 4.80702,-3.02011 20.81003,0.75255 16.27968,3.83788 15.02594,3.83211 19.74919,0.091 1.33993,-1.06132 1.38709,-1.99129 0.87139,-17.18417 l -0.5452,-16.06214 1.97355,-2.34542 c 1.08544,-1.28998 3.14706,-2.73272 4.58137,-3.20609 2.46743,-0.81432 3.37716,-0.51334 16.8974,5.59044 7.85926,3.54811 14.64144,6.4511 15.07152,6.4511 0.43008,0 2.09365,-0.66917 3.69683,-1.48705 3.33704,-1.70243 3.00904,-0.6604 5.68709,-18.06717 1.05007,-6.82518 2.3766,-13.456138 2.94785,-14.73547 1.29517,-2.900569 5.70386,-5.15407 8.85163,-4.524515 1.23045,0.24609 7.70622,4.399427 14.39059,9.229635 12.52188,9.04847 13.37675,9.41229 17.83847,7.59172 2.16896,-0.88503 2.74062,-2.01793 7.85454,-15.56608 5.69969,-15.100002 6.7478,-16.775467 11.0299,-17.631886 3.9455,-0.789101 6.31655,0.949968 16.86297,12.368314 9.26687,10.033014 10.63776,11.234913 12.81453,11.234913 4.78917,0 5.71357,-0.929064 13.59323,-13.661724 4.19294,-6.775338 8.28562,-12.917977 9.09483,-13.650309 0.80922,-0.732331 2.64543,-1.522046 4.08047,-1.754921 4.89806,-0.794844 6.59647,0.873256 15.40787,15.132818 8.09051,13.092924 8.12642,13.136462 11.22454,13.606697 1.70943,0.259459 3.57271,0.354665 4.14061,0.21157 0.56791,-0.143096 5.84737,-5.37784 11.73213,-11.632766 11.54738,-12.273741 13.07833,-13.241113 17.81987,-11.259971 1.36798,0.571578 3.01656,1.794951 3.66351,2.718604 0.64696,0.923654 3.48246,7.859582 6.30113,15.413172 l 5.12483,13.733799 3.69805,1.18259 3.69805,1.18259 10.21742,-7.38756 c 14.69749,-10.626802 15.85526,-11.355749 18.03124,-11.352633 2.58727,0.0037 6.67523,2.547136 7.69651,4.788589 0.44769,0.982584 1.88106,8.344394 3.18527,16.359594 l 2.37128,14.57307 3.48308,1.84209 3.48308,1.84209 13.81064,-6.2875 c 14.4439,-6.5758 17.16325,-7.22505 20.66146,-4.93293 3.57655,2.34344 3.92924,4.60324 3.28905,21.07379 l -0.58466,15.04171 2.74325,2.41604 c 1.50879,1.32882 3.08169,2.42647 3.49534,2.43921 0.41364,0.0127 7.14587,-1.49752 14.96049,-3.35615 7.81463,-1.85862 14.98048,-3.37931 15.92412,-3.37931 2.17802,0 5.88269,3.08821 7.03135,5.86131 0.75469,1.82198 0.38675,4.23777 -2.53474,16.64249 -1.87968,7.98113 -3.41759,15.00476 -3.41759,15.60807 0,0.60332 0.92506,2.30975 2.05569,3.79208 l 2.05569,2.69515 15.63015,-0.50227 c 13.26736,-0.42633 15.96753,-0.3278 17.86186,0.65179 2.52777,1.30717 4.5134,4.61893 4.5134,7.52774 0,1.07873 -2.86534,8.24651 -6.36743,15.9284 l -6.36743,13.96708 1.92886,3.29136 c 1.07288,1.83073 2.647,3.44894 3.54712,3.64646 0.89003,0.19531 7.83214,1.35407 15.42689,2.57503 11.42352,1.83648 14.11927,2.51173 15.60692,3.90931 2.30848,2.16869 3.45213,6.19199 2.48397,8.73844 -0.40166,1.05644 -4.61196,7.31147 -9.35623,13.90007 l -8.62596,11.97927 0.83377,3.31115 c 0.45856,1.82113 1.2192,3.63031 1.6903,4.02038 0.47111,0.39008 6.94844,2.96724 14.39409,5.72702 15.65216,5.80158 17.67401,7.25966 17.67401,12.74573 0,3.83663 0.11994,3.69275 -14.1016,16.91678 l -9.21305,8.56684 v 3.93467 3.93467 l 13.34952,8.1874 c 11.43271,7.01179 13.55597,8.60684 14.78738,11.10863 1.30602,2.65337 1.34051,3.201 0.37605,5.97197 -0.98807,2.83881 -2.01521,3.64299 -14.78739,11.57763 l -13.72556,8.52691 v 3.94884 3.94884 l 10.9703,10.10733 c 6.03367,5.55903 11.27947,10.67735 11.65733,11.37403 0.37786,0.69669 0.68702,2.66875 0.68702,4.38235 0,5.02267 -2.12723,6.47452 -18.2304,12.44237 l -14.09394,5.22323 -1.205,3.5988 c -1.40545,4.1974 -2.26624,2.43181 8.3289,17.08355 8.99257,12.43559 9.72521,13.97277 8.46009,17.75062 -1.57796,4.71205 -3.32633,5.43034 -19.41918,7.97815 -8.03344,1.27184 -15.05403,2.66469 -15.60132,3.09521 -0.54729,0.43053 -1.62285,2.01333 -2.39014,3.51732 l -1.39506,2.73456 6.32477,13.86164 c 3.47862,7.62391 6.33099,14.80916 6.33858,15.96723 0.0197,2.99942 -1.91216,6.33398 -4.42123,7.63147 -1.81793,0.94009 -4.53961,1.01578 -17.47326,0.48595 l -15.31992,-0.62757 -2.44428,2.66042 c -1.34435,1.46323 -2.44428,3.23025 -2.44428,3.9267 0,0.69646 1.54168,7.76647 3.42596,15.71114 l 3.42594,14.44486 -1.35771,2.77767 c -0.78287,1.60164 -2.48033,3.37875 -4.00922,4.19734 l -2.65151,1.41966 -14.84509,-3.4879 c -8.1648,-1.91833 -15.2916,-3.48789 -15.83731,-3.48789 -0.54571,0 -2.20823,1.09992 -3.69448,2.44428 l -2.70226,2.44427 0.60639,15.04171 c 0.67851,16.83081 0.3086,18.97233 -3.62881,21.00845 -1.25299,0.64794 -3.27224,1.17808 -4.48721,1.17808 -1.21498,0 -8.42361,-2.84584 -16.01917,-6.32409 l -13.81011,-6.32409 -3.38439,1.89772 -3.38438,1.8977 -2.45474,15.10354 c -1.38142,8.49965 -2.969,15.88843 -3.6309,16.89862 -1.5245,2.32667 -5.96445,4.17842 -8.49883,3.54456 -1.59298,-0.39842 -11.04392,-6.86818 -24.91245,-17.05416 -1.75705,-1.29049 -2.1618,-1.31015 -5.64986,-0.27431 l -3.75722,1.11578 -5.23519,14.12557 c -6.04733,16.31689 -7.39336,18.26204 -12.63715,18.26204 -4.18701,0 -4.62235,-0.34881 -16.32912,-13.08319 l -9.40107,-10.22629 -3.51868,-0.002 c -2.08559,-0.002 -3.96601,0.44474 -4.617,1.09573 -0.60408,0.60407 -4.57413,6.73572 -8.82234,13.6259 -6.31951,10.24962 -8.17653,12.71666 -10.21253,13.56735 -3.19827,1.33633 -3.87321,1.30973 -7.04335,-0.27754 z m 19.92428,-79.90748 c 11.05369,-1.00262 21.34127,-2.68238 32.71572,-5.34185 15.42809,-3.60724 39.55744,-12.08771 40.7612,-14.32586 0.30027,-0.5583 2.58861,-10.42179 5.0852,-21.91887 2.4966,-11.49708 5.03055,-21.85383 5.631,-23.01499 1.63799,-3.16752 6.0234,-6.67867 9.51635,-7.61923 3.68548,-0.99239 4.25951,-0.91039 27.17867,3.88293 l 17.85242,3.73366 4.52434,-4.83654 c 10.08922,-10.78541 20.78796,-25.4676 29.13889,-39.98814 14.1721,-24.64237 23.75029,-54.099 27.38959,-84.23358 1.21643,-10.07248 1.2895,-43.64576 0.0976,-44.83768 -0.43918,-0.43918 -10.37634,-5.17351 -22.08258,-10.52075 -11.70624,-5.34723 -21.9445,-10.30882 -22.7517,-11.02575 -2.30767,-2.04963 -4.22896,-6.98756 -4.24701,-10.91527 -0.0185,-4.03033 -0.0182,-4.03108 12.88379,-33.37475 l 8.98012,-20.42395 -3.13492,-5.14696 c -30.46354,-50.0155 -78.85744,-85.0232 -136.65941,-98.85814 l -9.23754,-2.21101 -15.95732,15.16949 c -8.77653,8.34323 -16.97265,15.79464 -18.21359,16.55871 -3.08206,1.89767 -10.02975,1.87205 -13.79903,-0.0509 -1.55862,-0.79515 -9.48538,-8.24713 -17.61502,-16.55997 l -14.78117,-15.11424 -9.61811,2.34101 c -38.25933,9.31221 -72.26055,27.80925 -100.03182,54.41843 -13.87977,13.29896 -27.09152,29.6001 -36.20826,44.67508 l -3.79035,6.26752 1.75218,3.88563 c 17.42787,38.648 19.44657,43.56874 19.44657,47.40251 0,4.06872 -1.90941,8.83786 -4.46286,11.14694 -0.76983,0.69615 -3.79643,2.45023 -6.72578,3.89796 -8.3132,4.10849 -34.42059,15.68779 -35.46752,15.73077 -0.56451,0.0232 -0.95127,1.11529 -0.96805,2.73356 -0.0153,1.48223 -0.33789,7.09467 -0.71672,12.47208 -0.79697,11.31321 0.0518,26.66967 2.28634,41.3647 4.72958,31.10347 16.06198,60.61895 33.35194,86.86589 6.19965,9.41132 19.46028,26.44955 23.50056,30.19523 l 2.14871,1.99205 18.42609,-4.03557 c 10.13435,-2.21956 19.70611,-4.04669 21.27058,-4.06026 5.62805,-0.0489 10.72216,3.18677 13.47708,8.56025 1.25757,2.45287 9.67389,37.16564 10.50052,43.30896 0.21286,1.58194 1.32679,2.33592 7.02177,4.75279 32.56533,13.82032 69.25995,19.9853 101.53155,17.05813 z m 122.7983,-17.79898 c 9.48407,-5.86355 11.29025,-19.76185 3.60722,-27.75721 -8.22633,-8.56075 -24.06903,-6.39259 -29.09092,3.98124 -2.31183,4.7756 -2.36713,12.08365 -0.12394,16.37964 4.97598,9.52965 16.6863,12.91197 25.60764,7.39633 z m -262.59416,-0.11839 c 6.45297,-3.31808 9.6596,-8.75398 9.64013,-16.34203 -0.0113,-4.4216 -0.35962,-5.89411 -2.09415,-8.85385 -4.69298,-8.00796 -15.78475,-11.01686 -24.37435,-6.61209 -7.19913,3.69175 -10.75632,12.54367 -8.41484,20.94001 1.2878,4.61796 7.3251,10.88977 11.63954,12.09165 4.05832,1.13055 10.07829,0.58904 13.60367,-1.22369 z M 581.79741,315.46055 c 3.63211,-1.85296 7.76461,-6.69889 8.87597,-10.40829 3.87203,-12.92365 -5.66503,-24.58685 -18.98097,-23.21253 -11.79202,1.21705 -18.48724,11.25213 -15.15493,22.71487 3.10854,10.69297 15.33238,15.97061 25.25993,10.90595 z m -421.57225,-0.33178 c 3.41972,-1.40958 7.02417,-4.754 8.84765,-8.20935 2.29491,-4.34868 2.28956,-12.39389 -0.0111,-16.75457 -5.57688,-10.57021 -20.20811,-12.59907 -28.84479,-3.99979 -3.96273,3.94555 -5.68635,9.10525 -4.91692,14.71886 1.12799,8.22961 6.25245,13.50658 15.1481,15.59894 2.02729,0.47684 7.00905,-0.21311 9.77711,-1.35409 z M 370.26921,155.61869 c 6.68769,-2.78935 10.64993,-9.03686 10.67654,-16.83437 0.0369,-10.78981 -6.82975,-17.36054 -18.12079,-17.34006 -10.28824,0.0187 -17.21071,7.17939 -17.21071,17.80305 0,7.0719 3.85356,13.18589 10.15315,16.10878 3.72794,1.72969 10.6824,1.85563 14.50181,0.2626 z"
       id="path903"
       inkscape:connector-curvature="0"
       transform="scale(0.26458333)" />
  </g>
  <g
     inkscape:groupmode="layer"
     id="layer5"
     inkscape:label="banner"
     style="display:inline"
     transform="translate(-10.710256,-18.018778)"
     sodipodi:insensitive="true">
    <path
       id="path922"
       style="fill:#b2282f;fill-opacity:1;stroke:#0d1d41;stroke-width:4.77299976;stroke-linecap:butt;stroke-linejoin:miter;stroke-miterlimit:4;stroke-dasharray:none;stroke-opacity:1"
       d="M 18.183541,83.825206 180.3833,66.695861 176.54392,111.25878 13.495923,127.63565 Z"
       inkscape:connector-curvature="0"
       sodipodi:nodetypes="ccccc" />
    <flowRoot
       xml:space="preserve"
       id="flowRoot925"
       style="font-style:normal;font-weight:normal;font-size:40px;line-height:1.25;font-family:sans-serif;letter-spacing:0px;word-spacing:0px;fill:#000000;fill-opacity:1;stroke:none"><flowRegion
         id="flowRegion927"><rect
           id="rect929"
           width="558.79956"
           height="149.66502"
           x="78.216896"
           y="340.35071" /></flowRegion><flowPara
         id="flowPara931" /></flowRoot>    <text
       xml:space="preserve"
       style="font-style:normal;font-weight:normal;font-size:10.58333302px;line-height:1.25;font-family:sans-serif;letter-spacing:0px;word-spacing:0px;fill:#000000;fill-opacity:1;stroke:none;stroke-width:0.26458332"
       x="23.878716"
       y="95.821815"
       id="text935"><tspan
         sodipodi:role="line"
         id="tspan933"
         x="23.878716"
         y="105.47731"
         style="font-style:normal;font-variant:normal;font-weight:normal;font-stretch:normal;font-size:50.79999924px;font-family:Impact;-inkscape-font-specification:Impact;stroke-width:0.26458332" /></text>
    <flowRoot
       xml:space="preserve"
       id="flowRoot941"
       style="font-style:normal;font-weight:normal;font-size:40px;line-height:1.25;font-family:sans-serif;letter-spacing:0px;word-spacing:0px;fill:#000000;fill-opacity:1;stroke:none"><flowRegion
         id="flowRegion943"><rect
           id="rect945"
           width="494.71542"
           height="180.03328"
           x="96.423828"
           y="343.07422" /></flowRegion><flowPara
         id="flowPara947" /></flowRoot>    <flowRoot
       xml:space="preserve"
       id="flowRoot841"
       style="font-style:normal;font-weight:normal;font-size:40px;line-height:1.20000005;font-family:sans-serif;letter-spacing:0px;word-spacing:0px;fill:#000000;fill-opacity:1;stroke:none"
       transform="scale(0.26458333)"><flowRegion
         id="flowRegion843"
         style="line-height:1.20000005"><rect
           id="rect845"
           width="467.79721"
           height="119.5816"
           x="-484.34308"
           y="144.05641"
           style="line-height:1.20000005" /></flowRegion><flowPara
         id="flowPara847" /></flowRoot>  </g>
  <g
     inkscape:groupmode="layer"
     id="layer7"
     inkscape:label="text"
     transform="translate(-10.710256,-18.018778)"
     style="display:inline">
    <text
       xml:space="preserve"
       style="font-style:normal;font-weight:normal;font-size:9.59444523px;line-height:1.25;font-family:sans-serif;letter-spacing:0px;word-spacing:0px;fill:#000000;fill-opacity:1;stroke:none;stroke-width:0.23986112;filter:url(#filter1294)"
       x="13.544458"
       y="116.56452"
       id="text882"
       transform="matrix(0.85053227,-0.08775457,0.09214611,0.86828879,15.534852,15.619126)"><tspan
         sodipodi:role="line"
         id="tspan880"
         x="13.544458"
         y="116.56452"
         style="font-style:italic;font-variant:normal;font-weight:bold;font-stretch:normal;font-size:38.37778091px;font-family:'Comic Sans MS';-inkscape-font-specification:'Comic Sans MS Bold Italic';font-variant-ligatures:normal;font-variant-caps:normal;font-variant-numeric:normal;font-feature-settings:normal;text-align:start;writing-mode:lr-tb;text-anchor:start;fill:#ffffff;fill-opacity:1;stroke-width:0.23986112"
         rotate="0 0 0 0 0 0">MOXIE</tspan></text>
  </g>
</svg>
